<svg id="Layer_1" data-name="Layer 1" xmlns="http://www.w3.org/2000/svg" xmlns:xlink="http://www.w3.org/1999/xlink" viewBox="0 0 300 150"><defs><style>.cls-1{fill:none;}.cls-2{fill:#a8ba3a;opacity:0.41;}.cls-3{fill:#504d75;}.cls-4{fill:#242052;}.cls-5{fill:#fdd089;}.cls-6{fill:#7c7997;}.cls-7{clip-path:url(#clip-path);}.cls-8{fill:#666;}.cls-9{fill:#e6e6e6;}.cls-10{fill:#ebf2fa;}</style><clipPath id="clip-path"><polygon class="cls-1" points="235.49 114.19 224.05 94.38 235.49 74.57 258.36 74.57 269.8 94.38 258.36 114.19 235.49 114.19"/></clipPath></defs><title>heros</title><rect class="cls-2" x="23.06" y="103.96" width="259.13" height="36.27"/><rect class="cls-3" x="72.34" y="21.95" width="70.41" height="112.4"/><rect class="cls-4" x="72.34" y="21.95" width="4.21" height="112.4"/><rect class="cls-5" x="83.33" y="29.11" width="53.91" height="91.6"/><rect class="cls-6" x="104.97" y="125.57" width="10.64" height="4.96"/><g class="cls-7"><polygon class="cls-8" points="242.35 102.59 237.7 94.55 242.35 86.51 251.63 86.51 256.28 94.55 251.63 102.59 242.35 102.59"/><polygon class="cls-8" points="266.46 101.27 262.58 94.55 266.46 87.83 274.22 87.83 278.09 94.55 274.22 101.27 266.46 101.27"/><polygon class="cls-8" points="254.86 81.3 250.98 74.58 254.86 67.86 262.62 67.86 266.49 74.58 262.62 81.3 254.86 81.3"/><polygon class="cls-8" points="219.9 101.47 216.03 94.75 219.9 88.03 227.66 88.03 231.54 94.75 227.66 101.47 219.9 101.47"/><polygon class="cls-8" points="231.56 121.64 227.68 114.92 231.56 108.21 239.31 108.21 243.19 114.92 239.31 121.64 231.56 121.64"/><polygon class="cls-8" points="254.79 121.5 250.91 114.78 254.79 108.06 262.54 108.06 266.42 114.78 262.54 121.5 254.79 121.5"/><polygon class="cls-8" points="231.56 81.3 227.68 74.58 231.56 67.86 239.31 67.86 243.19 74.58 239.31 81.3 231.56 81.3"/><polygon class="cls-9" points="243.11 88 239.24 81.28 243.11 74.56 250.87 74.56 254.75 81.28 250.87 88 243.11 88"/><polygon class="cls-9" points="254.73 94.67 250.86 87.95 254.73 81.23 262.49 81.23 266.37 87.95 262.49 94.67 254.73 94.67"/><polygon class="cls-9" points="254.78 108.05 250.9 101.34 254.78 94.62 262.53 94.62 266.41 101.34 262.53 108.05 254.78 108.05"/><polygon class="cls-9" points="231.57 94.67 227.7 87.95 231.57 81.23 239.33 81.23 243.21 87.95 239.33 94.67 231.57 94.67"/><polygon class="cls-9" points="231.62 108.05 227.74 101.34 231.62 94.62 239.37 94.62 243.25 101.34 239.37 108.05 231.62 108.05"/><polygon class="cls-9" points="243.11 114.75 239.24 108.03 243.11 101.31 250.87 101.31 254.75 108.03 250.87 114.75 243.11 114.75"/></g><path class="cls-10" d="M128.52,66.3a8,8,0,0,0-12.21-5,8,8,0,0,0-12,4.35,8,8,0,0,0-2.39,1.23,8,8,0,1,0,0,12.9,8,8,0,0,0,8,.89,8,8,0,0,0,7.41.36,8,8,0,0,0,5.8.36A8,8,0,0,0,128.52,66.3Z"/></svg>