<svg id="Layer_1" data-name="Layer 1" xmlns="http://www.w3.org/2000/svg" viewBox="0 0 300 150"><defs><style>.cls-1{fill:#cad5da;opacity:0.59;}.cls-2{fill:none;stroke:#886f4b;stroke-miterlimit:10;stroke-width:0.5px;opacity:0.1;}.cls-3{fill:#b1342f;}.cls-4{fill:#d34f1d;}.cls-5{fill:#1a1a1a;}.cls-6{fill:#f29254;}.cls-7{fill:#333;}.cls-8{fill:#f26122;}.cls-9{fill:blue;}.cls-10{fill:#f2f2f2;}.cls-11{fill:#4d4d4d;}.cls-12{fill:#fff4c1;}</style></defs><title>heros</title><rect class="cls-1" x="38.42" y="21.06" width="243.98" height="103.75"/><line class="cls-2" x1="148.77" y1="125.2" x2="292.83" y2="125.2"/><polygon class="cls-3" points="60 13 60 40 23 40 23 128 59.63 128 79.92 128 115 128 115 13 60 13"/><rect class="cls-4" x="99.34" y="53.44" width="53.83" height="74.56"/><rect class="cls-5" x="107.09" y="71.67" width="38.32" height="56.33"/><rect class="cls-6" x="22.57" y="39.98" width="37.21" height="2.94"/><circle class="cls-7" cx="203.06" cy="124.46" r="5.22"/><circle class="cls-7" cx="234.52" cy="124.46" r="5.22"/><polygon class="cls-8" points="228 102 228 117 192 117 192 119 242 119 242 116.69 242 116.44 242 102 228 102"/><circle class="cls-9" cx="212.48" cy="104.85" r="12.04"/><path class="cls-10" d="M212.48,95.22c-1.08,0-3.2,3.57-3.92,7.11l-2.43,2.43v6.35h1.7l2.36-2.36a3.72,3.72,0,0,0,.79.63h3a3.66,3.66,0,0,0,.8-0.63l2.36,2.36h1.7v-6.35l-2.43-2.43C215.68,98.79,213.56,95.22,212.48,95.22Zm0,3.73c0.38,0,1,1.06,1.45,2.33a7.84,7.84,0,0,0-2.91,0C211.44,100,212.11,98.94,212.49,98.94Zm0.62,11.29H214a4.91,4.91,0,0,1,.16,1.28c0,1.65-1.28,3-1.7,3s-1.7-1.33-1.7-3a4.89,4.89,0,0,1,.16-1.28h0.89a2.1,2.1,0,0,0-.14.78,0.9,0.9,0,1,0,1.55,0A2.1,2.1,0,0,0,213.1,110.23Z"/><rect class="cls-11" x="227.44" y="99.37" width="0.96" height="17.17"/><circle class="cls-7" cx="128.52" cy="124.46" r="5.22"/><polygon class="cls-8" points="122 102 122 117 86 117 86 119 136 119 136 116.69 136 116.44 136 102 122 102"/><rect class="cls-12" x="127.01" y="103.66" width="9.11" height="7.27"/><circle class="cls-9" cx="106.48" cy="104.85" r="12.04"/><path class="cls-10" d="M106.48,95.22c-1.08,0-3.2,3.57-3.92,7.11l-2.43,2.43v6.35h1.7l2.36-2.36a3.72,3.72,0,0,0,.79.63h3a3.66,3.66,0,0,0,.8-0.63l2.36,2.36h1.7v-6.35l-2.43-2.43C109.68,98.79,107.56,95.22,106.48,95.22Zm0,3.73c0.38,0,1,1.06,1.45,2.33a7.84,7.84,0,0,0-2.91,0C105.44,100,106.11,98.94,106.49,98.94Zm0.62,11.29H108a4.91,4.91,0,0,1,.16,1.28c0,1.65-1.28,3-1.7,3s-1.7-1.33-1.7-3a4.89,4.89,0,0,1,.16-1.28h0.89a2.1,2.1,0,0,0-.14.78,1.51,1.51,0,0,0,.77,1.35,1.51,1.51,0,0,0,.77-1.35A2.1,2.1,0,0,0,107.1,110.23Z"/><rect class="cls-11" x="121.44" y="99.37" width="0.96" height="17.17"/><rect class="cls-4" x="99.34" y="64.38" width="7.78" height="63.62"/><rect class="cls-4" x="81.24" y="15.88" width="33.76" height="36.68"/><rect class="cls-3" x="76.36" y="64.38" width="22.89" height="63.62"/><rect class="cls-6" x="60.05" y="12.94" width="55.03" height="2.94"/><rect class="cls-6" x="81.12" y="52.05" width="72.37" height="2.94"/><rect class="cls-8" x="135.91" y="110.93" width="3.34" height="8.07"/><rect class="cls-8" x="240.81" y="110.93" width="3.34" height="8.07"/><rect class="cls-12" x="233.01" y="103.66" width="9.15" height="7.27"/><path class="cls-12" d="M92.53,36.06a7.86,7.86,0,0,1,1.67-8L94.12,30A1.09,1.09,0,0,1,95,30a3.32,3.32,0,0,1,2.65-1.32,3.72,3.72,0,0,0-1.19,2.09,7.79,7.79,0,0,0,1.63.19,0.73,0.73,0,0,1-.14.81,1.86,1.86,0,0,1-1.17.59l0.1,1.27L96,33.16a1,1,0,0,0,1.17,1.31c0.83-.14,1.13-0.68,1.71-0.65s0.8,0.35.73,0.66a0.58,0.58,0,0,1-.72.3,2.26,2.26,0,0,1-2.37,1.11c1.73,1.43,4.06.13,4.65-1a3.3,3.3,0,0,0-.52-3.39,2.26,2.26,0,0,1,1.43,1.29,5.05,5.05,0,0,0-1.79-4.2c2.32,0.68,3.73,2.47,3.77,5.34A6,6,0,0,1,92.53,36.06Z"/></svg>