<svg id="Layer_1" data-name="Layer 1" xmlns="http://www.w3.org/2000/svg" viewBox="0 0 860 600"><defs><style>.cls-1{fill:#f2f2f2;}.cls-2{fill:#e6e6e6;}.cls-3{fill:#fff;}.cls-4{fill:#ccc;}.cls-29,.cls-5{font-size:14.28px;}.cls-13,.cls-14,.cls-5,.cls-7{fill:#4d4d4d;}.cls-27,.cls-28,.cls-5,.cls-6{font-family:FrancoisOne-Regular, Francois One;}.cls-6{font-size:9.52px;}.cls-14,.cls-48,.cls-7,.cls-9{font-size:7.14px;}.cls-10,.cls-13,.cls-22,.cls-29,.cls-30,.cls-37,.cls-38,.cls-40,.cls-48,.cls-7,.cls-8,.cls-9{font-family:OpenSans-Light, Open Sans;}.cls-21,.cls-8{font-size:8.33px;}.cls-10{font-size:11.9px;}.cls-11{letter-spacing:0.05em;}.cls-12{font-size:7.14px;}.cls-13,.cls-19,.cls-22,.cls-39,.cls-46{font-size:5.95px;}.cls-14{font-family:OpenSans-Bold, Open Sans;}.cls-14,.cls-19,.cls-20,.cls-46{font-weight:700;}.cls-15{letter-spacing:0em;}.cls-16,.cls-17,.cls-18,.cls-23,.cls-32,.cls-33,.cls-34,.cls-35,.cls-36,.cls-41,.cls-42,.cls-43,.cls-44,.cls-45,.cls-49{fill:none;}.cls-16,.cls-35{stroke:#b3b3b3;}.cls-16,.cls-17,.cls-32,.cls-33,.cls-34,.cls-35,.cls-36,.cls-43{stroke-miterlimit:10;}.cls-17{stroke:#e6e6e6;}.cls-18{stroke:#999;}.cls-18,.cls-23,.cls-41,.cls-45,.cls-49{stroke-linecap:round;}.cls-18,.cls-23,.cls-41,.cls-42,.cls-44,.cls-45,.cls-49{stroke-linejoin:round;}.cls-19,.cls-20,.cls-39{fill:gray;}.cls-19,.cls-20,.cls-46{font-family:OpenSans-Semibold, Open Sans;}.cls-20{font-size:4.76px;}.cls-21,.cls-31,.cls-39{font-family:OpenSans, Open Sans;}.cls-23,.cls-36,.cls-49{stroke:gray;}.cls-24,.cls-27,.cls-48{fill:#333;}.cls-25{letter-spacing:0.05em;}.cls-26{letter-spacing:-0.01em;}.cls-27,.cls-28{font-size:21.42px;}.cls-28,.cls-37{fill:#999;}.cls-29,.cls-30,.cls-31{fill:#1a1a1a;}.cls-30,.cls-31{font-size:10.71px;}.cls-32,.cls-33,.cls-34,.cls-41,.cls-42{stroke:#4d4d4d;}.cls-32,.cls-33,.cls-34,.cls-49{stroke-width:0.75px;}.cls-33{stroke-dasharray:1.98 1.98;}.cls-34{stroke-dasharray:2.03 2.03;}.cls-35{stroke-width:2px;}.cls-36{stroke-width:0.25px;}.cls-37{font-size:13.09px;}.cls-38{font-size:7.74px;}.cls-40{font-size:6.55px;}.cls-43,.cls-44,.cls-45{stroke:#666;}.cls-46{fill:#b3b3b3;}.cls-47{fill:#666;}</style></defs><title>smpp_02</title><rect class="cls-1" x="19.26" y="45.76" width="55.94" height="24.4"/><rect class="cls-2" x="2" y="3.51" width="857" height="32.73"/><rect class="cls-3" x="20.45" y="99.33" width="189.49" height="185.65" rx="3" ry="3"/><rect class="cls-4" x="20.45" y="99.33" width="188.8" height="49.07"/><text class="cls-5" transform="translate(67.5 116.99)">Candidate Name</text><text class="cls-6" transform="translate(27.84 162.36)">Continuity</text><text class="cls-6" transform="translate(157.87 162.36)">Experience</text><text class="cls-7" transform="translate(82.95 128.04)">job title @ Company</text><text class="cls-8" transform="translate(27.79 220.58)">Stanford </text><text class="cls-9" transform="translate(27.79 177)">Sr. Biomedical Basket Weaver</text><text class="cls-9" transform="translate(27.79 187.18)">Biomedical Basket Weaver</text><text class="cls-8" transform="translate(27.79 240.36)">University of Illinois Urbana-Champaign</text><text class="cls-10" transform="translate(167.39 179.97) rotate(0.9)">1<tspan class="cls-11" x="6.79" y="0">5</tspan><tspan class="cls-12" x="14.18" y="0">yrs</tspan></text><text class="cls-13" transform="translate(106.36 270.81)">details</text><text class="cls-14" transform="translate(85.06 140.23)">Anytown, ST USA</text><text class="cls-6" transform="translate(27.09 207.76)"><tspan class="cls-15">E</tspan><tspan x="4.55" y="0">ducation</tspan></text><line class="cls-16" x1="27.69" y1="210.67" x2="202.66" y2="210.67"/><line class="cls-17" x1="147.1" y1="273.33" x2="83.24" y2="273.33"/><line class="cls-16" x1="155.87" y1="165.85" x2="202.51" y2="165.85"/><line class="cls-16" x1="27.95" y1="165.85" x2="148.91" y2="165.85"/><polyline class="cls-18" points="117.1 276.41 114.97 278.54 112.83 276.41"/><polyline class="cls-18" points="117.1 278.54 114.97 280.67 112.83 278.54"/><text class="cls-19" transform="translate(42.27 228.64)">M.S. Biomedical Basket Weaving</text><text class="cls-20" transform="translate(27.98 228.65)">2012</text><text class="cls-19" transform="translate(42.27 248.37)">B.S. Biomedical Basket Weaving</text><text class="cls-20" transform="translate(27.98 248.38)">2008</text><text class="cls-21" transform="translate(131.97 177.35)">1</text><text class="cls-21" transform="translate(131.97 186.82)">4</text><text class="cls-22" transform="translate(137.97 176.46)">yrs</text><text class="cls-22" transform="translate(137.97 186.69)">yrs</text><circle class="cls-23" cx="202.43" cy="106.63" r="4.46"/><line class="cls-23" x1="204.16" y1="104.91" x2="200.71" y2="108.36"/><line class="cls-23" x1="204.16" y1="108.36" x2="200.71" y2="104.91"/><path class="cls-24" d="M206.93,100.33a2,2,0,0,1,2,2V282a2,2,0,0,1-2,2H23.45a2,2,0,0,1-2-2V102.33a2,2,0,0,1,2-2H206.93m0-1H23.45a3,3,0,0,0-3,3V282a3,3,0,0,0,3,3H206.93a3,3,0,0,0,3-3V102.33a3,3,0,0,0-3-3Z"/><rect class="cls-3" x="423.36" y="99.33" width="189.49" height="185.65" rx="3" ry="3"/><rect class="cls-4" x="423.36" y="99.33" width="188.8" height="49.07"/><text class="cls-5" transform="translate(470.41 116.99)">Candidate Name</text><text class="cls-6" transform="translate(430.75 162.36)">Continuity</text><text class="cls-6" transform="translate(560.78 162.36)">Experience</text><text class="cls-7" transform="translate(485.86 128.04)">job title @ Company</text><text class="cls-8" transform="translate(430.69 220.58)">Stanford </text><text class="cls-9" transform="translate(430.69 177)">Sr. Biomedical Basket Weaver</text><text class="cls-9" transform="translate(430.69 187.18)">Biomedical Basket Weaver</text><text class="cls-8" transform="translate(430.69 240.36)">University of Illinois Urbana-Champaign</text><text class="cls-10" transform="translate(570.3 179.97) rotate(0.9)">1<tspan class="cls-25" x="6.79" y="0">5</tspan><tspan class="cls-12" x="14.18" y="0">yrs</tspan></text><text class="cls-13" transform="translate(509.27 270.81)">details</text><text class="cls-14" transform="translate(487.96 140.23)">Anytown, ST USA</text><text class="cls-6" transform="translate(430 207.76)"><tspan class="cls-26">E</tspan><tspan x="4.55" y="0">ducation</tspan></text><line class="cls-16" x1="430.59" y1="210.67" x2="605.57" y2="210.67"/><line class="cls-17" x1="550.01" y1="273.33" x2="486.15" y2="273.33"/><line class="cls-16" x1="558.77" y1="165.85" x2="605.42" y2="165.85"/><line class="cls-16" x1="430.86" y1="165.85" x2="551.82" y2="165.85"/><polyline class="cls-18" points="520 276.41 517.87 278.54 515.74 276.41"/><polyline class="cls-18" points="520 278.54 517.87 280.67 515.74 278.54"/><text class="cls-19" transform="translate(445.17 228.64)">M.S. Biomedical Basket Weaving</text><text class="cls-20" transform="translate(430.89 228.65)">2012</text><text class="cls-19" transform="translate(445.17 248.37)">B.S. Biomedical Basket Weaving</text><text class="cls-20" transform="translate(430.89 248.38)">2008</text><text class="cls-21" transform="translate(534.88 177.35)">1</text><text class="cls-21" transform="translate(534.88 186.82)">4</text><text class="cls-22" transform="translate(540.88 176.46)">yrs</text><text class="cls-22" transform="translate(540.88 186.69)">yrs</text><circle class="cls-23" cx="605.34" cy="106.63" r="4.46"/><line class="cls-23" x1="607.06" y1="104.91" x2="603.62" y2="108.36"/><line class="cls-23" x1="607.06" y1="108.36" x2="603.62" y2="104.91"/><path class="cls-24" d="M609.84,100.33a2,2,0,0,1,2,2V282a2,2,0,0,1-2,2H426.36a2,2,0,0,1-2-2V102.33a2,2,0,0,1,2-2H609.84m0-1H426.36a3,3,0,0,0-3,3V282a3,3,0,0,0,3,3H609.84a3,3,0,0,0,3-3V102.33a3,3,0,0,0-3-3Z"/><rect class="cls-3" x="20.45" y="297.51" width="189.49" height="185.65" rx="3" ry="3"/><rect class="cls-4" x="20.45" y="297.51" width="188.8" height="49.07"/><text class="cls-5" transform="translate(67.5 315.17)">Candidate Name</text><text class="cls-6" transform="translate(27.84 360.54)">Continuity</text><text class="cls-6" transform="translate(157.87 360.54)">Experience</text><text class="cls-7" transform="translate(82.95 326.22)">job title @ Company</text><text class="cls-8" transform="translate(27.79 418.76)">Stanford </text><text class="cls-9" transform="translate(27.79 375.18)">Sr. Biomedical Basket Weaver</text><text class="cls-9" transform="translate(27.79 385.36)">Biomedical Basket Weaver</text><text class="cls-8" transform="translate(27.79 438.54)">University of Illinois Urbana-Champaign</text><text class="cls-10" transform="translate(167.39 378.15) rotate(0.9)">1<tspan class="cls-11" x="6.79" y="0">5</tspan><tspan class="cls-12" x="14.18" y="0">yrs</tspan></text><text class="cls-13" transform="translate(106.36 468.99)">details</text><text class="cls-14" transform="translate(85.06 338.41)">Anytown, ST USA</text><text class="cls-6" transform="translate(27.09 405.94)"><tspan class="cls-15">E</tspan><tspan x="4.55" y="0">ducation</tspan></text><line class="cls-16" x1="27.69" y1="408.86" x2="202.66" y2="408.86"/><line class="cls-17" x1="147.1" y1="471.51" x2="83.24" y2="471.51"/><line class="cls-16" x1="155.87" y1="364.03" x2="202.51" y2="364.03"/><line class="cls-16" x1="27.95" y1="364.03" x2="148.91" y2="364.03"/><polyline class="cls-18" points="117.1 474.59 114.97 476.72 112.83 474.59"/><polyline class="cls-18" points="117.1 476.72 114.97 478.85 112.83 476.72"/><text class="cls-19" transform="translate(42.27 426.82)">M.S. Biomedical Basket Weaving</text><text class="cls-20" transform="translate(27.98 426.83)">2012</text><text class="cls-19" transform="translate(42.27 446.55)">B.S. Biomedical Basket Weaving</text><text class="cls-20" transform="translate(27.98 446.56)">2008</text><text class="cls-21" transform="translate(131.97 375.53)">1</text><text class="cls-21" transform="translate(131.97 385)">4</text><text class="cls-22" transform="translate(137.97 374.64)">yrs</text><text class="cls-22" transform="translate(137.97 384.87)">yrs</text><circle class="cls-23" cx="202.43" cy="304.82" r="4.46"/><line class="cls-23" x1="204.16" y1="303.09" x2="200.71" y2="306.54"/><line class="cls-23" x1="204.16" y1="306.54" x2="200.71" y2="303.09"/><path class="cls-24" d="M206.93,298.51a2,2,0,0,1,2,2V480.16a2,2,0,0,1-2,2H23.45a2,2,0,0,1-2-2V300.51a2,2,0,0,1,2-2H206.93m0-1H23.45a3,3,0,0,0-3,3V480.16a3,3,0,0,0,3,3H206.93a3,3,0,0,0,3-3V300.51a3,3,0,0,0-3-3Z"/><rect class="cls-3" x="423.36" y="297.51" width="189.49" height="185.65" rx="3" ry="3"/><rect class="cls-4" x="423.36" y="297.51" width="188.8" height="49.07"/><text class="cls-5" transform="translate(470.41 315.17)">Candidate Name</text><text class="cls-6" transform="translate(430.75 360.54)">Continuity</text><text class="cls-6" transform="translate(560.78 360.54)">Experience</text><text class="cls-7" transform="translate(485.86 326.22)">job title @ Company</text><text class="cls-8" transform="translate(430.69 418.76)">Stanford </text><text class="cls-9" transform="translate(430.69 375.18)">Sr. Biomedical Basket Weaver</text><text class="cls-9" transform="translate(430.69 385.36)">Biomedical Basket Weaver</text><text class="cls-8" transform="translate(430.69 438.54)">University of Illinois Urbana-Champaign</text><text class="cls-10" transform="translate(570.3 378.15) rotate(0.9)">1<tspan class="cls-25" x="6.79" y="0">5</tspan><tspan class="cls-12" x="14.18" y="0">yrs</tspan></text><text class="cls-13" transform="translate(509.27 468.99)">details</text><text class="cls-14" transform="translate(487.96 338.41)">Anytown, ST USA</text><text class="cls-6" transform="translate(430 405.94)"><tspan class="cls-26">E</tspan><tspan x="4.55" y="0">ducation</tspan></text><line class="cls-16" x1="430.59" y1="408.86" x2="605.57" y2="408.86"/><line class="cls-17" x1="550.01" y1="471.51" x2="486.15" y2="471.51"/><line class="cls-16" x1="558.77" y1="364.03" x2="605.42" y2="364.03"/><line class="cls-16" x1="430.86" y1="364.03" x2="551.82" y2="364.03"/><polyline class="cls-18" points="520 474.59 517.87 476.72 515.74 474.59"/><polyline class="cls-18" points="520 476.72 517.87 478.85 515.74 476.72"/><text class="cls-19" transform="translate(445.17 426.82)">M.S. Biomedical Basket Weaving</text><text class="cls-20" transform="translate(430.89 426.83)">2012</text><text class="cls-19" transform="translate(445.17 446.55)">B.S. Biomedical Basket Weaving</text><text class="cls-20" transform="translate(430.89 446.56)">2008</text><text class="cls-21" transform="translate(534.88 375.53)">1</text><text class="cls-21" transform="translate(534.88 385)">4</text><text class="cls-22" transform="translate(540.88 374.64)">yrs</text><text class="cls-22" transform="translate(540.88 384.87)">yrs</text><circle class="cls-23" cx="605.34" cy="304.82" r="4.46"/><line class="cls-23" x1="607.06" y1="303.09" x2="603.62" y2="306.54"/><line class="cls-23" x1="607.06" y1="306.54" x2="603.62" y2="303.09"/><path class="cls-24" d="M609.84,298.51a2,2,0,0,1,2,2V480.16a2,2,0,0,1-2,2H426.36a2,2,0,0,1-2-2V300.51a2,2,0,0,1,2-2H609.84m0-1H426.36a3,3,0,0,0-3,3V480.16a3,3,0,0,0,3,3H609.84a3,3,0,0,0,3-3V300.51a3,3,0,0,0-3-3Z"/><rect class="cls-3" x="20.45" y="495.09" width="189.49" height="185.65" rx="3" ry="3"/><rect class="cls-4" x="20.45" y="495.09" width="188.8" height="49.07"/><text class="cls-5" transform="translate(67.5 512.76)">Candidate Name</text><text class="cls-6" transform="translate(27.84 558.13)">Continuity</text><text class="cls-6" transform="translate(157.87 558.13)">Experience</text><text class="cls-7" transform="translate(82.95 523.81)">job title @ Company</text><text class="cls-9" transform="translate(27.79 572.76)">Sr. Biomedical Basket Weaver</text><text class="cls-9" transform="translate(27.79 582.95)">Biomedical Basket Weaver</text><text class="cls-10" transform="translate(167.39 575.73) rotate(0.9)">1<tspan class="cls-11" x="6.79" y="0">5</tspan><tspan class="cls-12" x="14.18" y="0">yrs</tspan></text><text class="cls-14" transform="translate(85.06 536)">Anytown, ST USA</text><text class="cls-6" transform="translate(27.09 603.53)"><tspan class="cls-15">E</tspan><tspan x="4.55" y="0">ducation</tspan></text><line class="cls-16" x1="155.87" y1="561.61" x2="202.51" y2="561.61"/><line class="cls-16" x1="27.95" y1="561.61" x2="148.91" y2="561.61"/><text class="cls-21" transform="translate(131.97 573.11)">1</text><text class="cls-21" transform="translate(131.97 582.58)">4</text><text class="cls-22" transform="translate(137.97 572.23)">yrs</text><text class="cls-22" transform="translate(137.97 582.45)">yrs</text><circle class="cls-23" cx="202.43" cy="502.4" r="4.46"/><line class="cls-23" x1="204.16" y1="500.68" x2="200.71" y2="504.12"/><line class="cls-23" x1="204.16" y1="504.12" x2="200.71" y2="500.68"/><path class="cls-24" d="M206.93,496.09a2,2,0,0,1,2,2V677.74a2,2,0,0,1-2,2H23.45a2,2,0,0,1-2-2V498.09a2,2,0,0,1,2-2H206.93m0-1H23.45a3,3,0,0,0-3,3V677.74a3,3,0,0,0,3,3H206.93a3,3,0,0,0,3-3V498.09a3,3,0,0,0-3-3Z"/><rect class="cls-3" x="423.36" y="495.09" width="189.49" height="185.65" rx="3" ry="3"/><rect class="cls-4" x="423.36" y="495.09" width="188.8" height="49.07"/><text class="cls-5" transform="translate(470.41 512.76)">Candidate Name</text><text class="cls-6" transform="translate(430.75 558.13)">Continuity</text><text class="cls-6" transform="translate(560.78 558.13)">Experience</text><text class="cls-7" transform="translate(485.86 523.81)">job title @ Company</text><text class="cls-9" transform="translate(430.69 572.76)">Sr. Biomedical Basket Weaver</text><text class="cls-9" transform="translate(430.69 582.95)">Biomedical Basket Weaver</text><text class="cls-10" transform="translate(570.3 575.73) rotate(0.9)">1<tspan class="cls-25" x="6.79" y="0">5</tspan><tspan class="cls-12" x="14.18" y="0">yrs</tspan></text><text class="cls-14" transform="translate(487.96 536)">Anytown, ST USA</text><text class="cls-6" transform="translate(430 603.53)"><tspan class="cls-26">E</tspan><tspan x="4.55" y="0">ducation</tspan></text><line class="cls-16" x1="558.77" y1="561.61" x2="605.42" y2="561.61"/><line class="cls-16" x1="430.86" y1="561.61" x2="551.82" y2="561.61"/><text class="cls-21" transform="translate(534.88 573.11)">1</text><text class="cls-21" transform="translate(534.88 582.58)">4</text><text class="cls-22" transform="translate(540.88 572.23)">yrs</text><text class="cls-22" transform="translate(540.88 582.45)">yrs</text><circle class="cls-23" cx="605.34" cy="502.4" r="4.46"/><line class="cls-23" x1="607.06" y1="500.68" x2="603.62" y2="504.12"/><line class="cls-23" x1="607.06" y1="504.12" x2="603.62" y2="500.68"/><path class="cls-24" d="M609.84,496.09a2,2,0,0,1,2,2V677.74a2,2,0,0,1-2,2H426.36a2,2,0,0,1-2-2V498.09a2,2,0,0,1,2-2H609.84m0-1H426.36a3,3,0,0,0-3,3V677.74a3,3,0,0,0,3,3H609.84a3,3,0,0,0,3-3V498.09a3,3,0,0,0-3-3Z"/><text class="cls-27" transform="translate(21.04 64.21)">Leads</text><text class="cls-28" transform="translate(87.7 64.21)">Contacted</text><text class="cls-29" transform="translate(651.89 109.59)">Showing 1398 leads</text><text class="cls-30" transform="translate(651.89 133.06)">Skills</text><text class="cls-31" transform="translate(651.89 145.56)">nuAnchuck </text><line class="cls-32" x1="19.26" y1="70.16" x2="20.26" y2="70.16"/><line class="cls-33" x1="22.23" y1="70.16" x2="72.62" y2="70.16"/><line class="cls-32" x1="73.61" y1="70.16" x2="74.61" y2="70.16"/><line class="cls-32" x1="88.89" y1="70.16" x2="89.89" y2="70.16"/><line class="cls-34" x1="91.92" y1="70.16" x2="176.15" y2="70.16"/><line class="cls-32" x1="177.16" y1="70.16" x2="178.16" y2="70.16"/><line class="cls-35" x1="19.85" y1="80.28" x2="623.92" y2="80.28"/><line class="cls-35" x1="651.89" y1="80.28" x2="841.15" y2="80.28"/><line class="cls-35" x1="651.89" y1="380.83" x2="841.15" y2="380.83"/><line class="cls-36" x1="651.89" y1="146.94" x2="841.15" y2="146.94"/><text class="cls-30" transform="translate(651.89 164.6)">Location</text><text class="cls-37" transform="translate(651.89 221.76)">Previous Employers</text><line class="cls-36" x1="651.89" y1="193.36" x2="841.15" y2="193.36"/><line class="cls-36" x1="651.89" y1="226.69" x2="841.15" y2="226.69"/><text class="cls-37" transform="translate(651.89 250.92)">Education</text><line class="cls-36" x1="651.89" y1="255.85" x2="841.15" y2="255.85"/><text class="cls-37" transform="translate(651.89 280.08)">Knows</text><line class="cls-36" x1="651.89" y1="285.01" x2="841.15" y2="285.01"/><text class="cls-37" transform="translate(651.89 309.24)">Fit for req</text><line class="cls-36" x1="651.89" y1="314.17" x2="841.15" y2="314.17"/><text class="cls-37" transform="translate(651.89 338.4)">Name</text><line class="cls-36" x1="651.89" y1="343.33" x2="841.15" y2="343.33"/><rect class="cls-3" x="221.97" y="98.73" width="189.49" height="637.84" rx="1" ry="1"/><text class="cls-13" transform="translate(308.55 419.85)">see all </text><line class="cls-17" x1="348.93" y1="422.36" x2="285.06" y2="422.36"/><polyline class="cls-18" points="318.92 425.44 316.79 427.57 314.66 425.44"/><polyline class="cls-18" points="318.92 427.57 316.79 429.71 314.66 427.57"/><text class="cls-6" transform="translate(229.92 161.8)">Continuity</text><text class="cls-6" transform="translate(359.95 161.8)">Experience</text><text class="cls-9" transform="translate(229.87 176.43)">Sr. Biomedical Basket Weaver</text><text class="cls-9" transform="translate(229.87 186.62)">Biomedical Basket Weaver</text><text class="cls-10" transform="translate(369.47 179.4) rotate(0.9)">1<tspan class="cls-25" x="6.79" y="0">5</tspan><tspan class="cls-12" x="14.18" y="0">yrs</tspan></text><line class="cls-16" x1="357.95" y1="165.28" x2="404.6" y2="165.28"/><line class="cls-16" x1="230.03" y1="165.28" x2="350.99" y2="165.28"/><text class="cls-21" transform="translate(334.06 176.78)">1</text><text class="cls-21" transform="translate(334.06 186.25)">4</text><text class="cls-22" transform="translate(340.05 175.9)">yrs</text><text class="cls-22" transform="translate(340.05 186.12)">yrs</text><rect class="cls-4" x="221.97" y="98.76" width="188.8" height="49.07"/><text class="cls-5" transform="translate(269.02 116.43)">Candidate Name</text><text class="cls-7" transform="translate(284.47 127.48)">job title @ Company</text><text class="cls-8" transform="translate(229.31 220.02)">Stanford </text><text class="cls-38" transform="translate(250.91 303.15)">Jill Longname Joebobtompsonton</text><text class="cls-19" transform="translate(244.68 228.08)">M.S. Biomedical Basket Weaving</text><text class="cls-39" transform="translate(251.12 311.6)">Director of Biomedical Basket Research</text><text class="cls-20" transform="translate(230.4 228.09)">2012</text><text class="cls-19" transform="translate(244.68 247.81)">B.S. Biomedical Basket Weaving</text><text class="cls-20" transform="translate(230.4 247.81)">2008</text><text class="cls-8" transform="translate(229.31 239.79)">University of Illinois Urbana-Champaign</text><text class="cls-14" transform="translate(286.58 139.67)">Anytown, ST USA</text><path d="M408.46,99.73a2,2,0,0,1,2,2V733.57a2,2,0,0,1-2,2H225a2,2,0,0,1-2-2V101.73a2,2,0,0,1,2-2H408.46m0-1H225a3,3,0,0,0-3,3V733.57a3,3,0,0,0,3,3H408.46a3,3,0,0,0,3-3V101.73a3,3,0,0,0-3-3Z"/><text class="cls-6" transform="translate(228.61 207.2)"><tspan class="cls-15">E</tspan><tspan x="4.55" y="0">ducation</tspan></text><line class="cls-16" x1="229.21" y1="210.11" x2="404.18" y2="210.11"/><rect class="cls-2" x="233.62" y="450.46" width="47.4" height="8.61" rx="1" ry="1"/><text class="cls-40" transform="translate(234.88 457.13)">Basket weaving</text><rect class="cls-2" x="312.75" y="450.46" width="50.63" height="8.61" rx="1" ry="1"/><text class="cls-40" transform="translate(314.02 457.13)">Clinical research</text><rect class="cls-2" x="285.06" y="450.46" width="23.75" height="8.61" rx="1" ry="1"/><text class="cls-40" transform="translate(286.33 457.13)">SCUBA</text><rect class="cls-2" x="367.39" y="450.46" width="33.08" height="8.61" rx="1" ry="1"/><text class="cls-40" transform="translate(368.66 457.13)">Skillllllllllllz</text><rect class="cls-2" x="233.61" y="462.18" width="33.08" height="8.61" rx="1" ry="1"/><text class="cls-40" transform="translate(234.88 468.86)">Skillllllllllllz</text><rect class="cls-2" x="270.65" y="462.18" width="33.08" height="8.61" rx="1" ry="1"/><text class="cls-40" transform="translate(271.92 468.86)">Skillllllllllllz</text><rect class="cls-2" x="307.75" y="462.18" width="33.08" height="8.61" rx="1" ry="1"/><text class="cls-40" transform="translate(309.01 468.86)">Skillllllllllllz</text><rect class="cls-2" x="344.85" y="462.18" width="33.08" height="8.61" rx="1" ry="1"/><text class="cls-40" transform="translate(346.11 468.86)">Skillllllllllllz</text><text class="cls-6" transform="translate(228.61 444.2)">Skills</text><line class="cls-16" x1="229.21" y1="447.11" x2="404.18" y2="447.11"/><text class="cls-6" transform="translate(228.61 545.43)">Work history</text><line class="cls-16" x1="229.21" y1="548.34" x2="404.18" y2="548.34"/><text class="cls-6" transform="translate(229.04 485.1)">Recommended Jobs</text><line class="cls-16" x1="229.63" y1="488.02" x2="404.6" y2="488.02"/><text class="cls-6" transform="translate(228.61 287.26)">Connections at CompanyName</text><line class="cls-16" x1="229.21" y1="290.17" x2="404.18" y2="290.17"/><line class="cls-17" x1="222.5" y1="272.76" x2="410.88" y2="272.76"/><polyline class="cls-18" points="314.36 269.98 316.49 267.85 318.62 269.98"/><polyline class="cls-18" points="314.36 267.85 316.49 265.72 318.62 267.85"/><circle class="cls-2" cx="238.41" cy="305.37" r="8.93"/><path class="cls-41" d="M236.86,303.81c0-.21.17-.19.39-.19s.39,0,.39.19"/><path class="cls-41" d="M239.19,303.81c0-.21.17-.19.39-.19s.39,0,.39.19"/><path class="cls-41" d="M237.37,306.28,235,307a1.55,1.55,0,0,0-1,1.45v1.38h8.93v-1.35a1.6,1.6,0,0,0-1-1.49l-2.41-.71"/><path class="cls-41" d="M240.35,302.87a1.94,1.94,0,1,0-3.88,0"/><path class="cls-42" d="M238.41,302.84h-1.75a.78.78,0,0,0-.78.78v.69a1,1,0,0,0,1,.86,1.56,1.56,0,0,0,1.55-1.36,1.57,1.57,0,0,0,1.55,1.36,1,1,0,0,0,1-.86v-.69a.78.78,0,0,0-.78-.78Z"/><circle class="cls-41" cx="238.41" cy="306.34" r="0.97"/><path class="cls-41" d="M236.51,305.11a2.14,2.14,0,0,0,.93,1.21"/><path class="cls-41" d="M239.38,306.32a2.14,2.14,0,0,0,.93-1.21"/><path class="cls-42" d="M240.54,306.6a2.2,2.2,0,0,1-4.27,0"/><path class="cls-41" d="M237.26,306.31c-.66-.1-2.92-.5-2.92-1.53,0-.64.52-.78,1.16-.78h.39"/><circle class="cls-41" cx="241.32" cy="305.56" r="0.39"/><circle class="cls-41" cx="241.91" cy="304.01" r="0.19"/><circle class="cls-41" cx="242.29" cy="302.46" r="0.19"/><text class="cls-38" transform="translate(250.91 327.07)">Bob A Srtnme</text><text class="cls-39" transform="translate(251.12 335.52)">Sales Associate</text><circle class="cls-2" cx="238.42" cy="329.29" r="8.93"/><path class="cls-41" d="M238.42,331a2.24,2.24,0,0,0,1.94-1.94c.58,0,.58-1.16,0-1.16l-.19-1c-1.55,0-1.55-.58-1.75-.78-.19.19-.19.78-1.75.78l-.19,1c-.58,0-.58,1.16,0,1.16A2.24,2.24,0,0,0,238.42,331Z"/><path class="cls-41" d="M240.75,328.22l.2-1.46s.19-1.94-2.52-1.94-2.52,1.94-2.52,1.94l.2,1.46"/><path class="cls-41" d="M237.44,330.65l-2.47.68a1.55,1.55,0,0,0-1,1.45v1h8.93v-1a1.55,1.55,0,0,0-1-1.45l-2.46-.68"/><path class="cls-41" d="M237.26,328.32c0-.21.17-.19.39-.19s.39,0,.39.19"/><path class="cls-41" d="M238.81,328.32c0-.21.17-.19.39-.19s.39,0,.39.19"/><polygon class="cls-41" points="238.42 332 237.26 333.75 239.59 333.75 238.42 332"/><path class="cls-41" d="M237.84,330.84v.58a.58.58,0,0,0,1.16,0v-.58"/><line class="cls-41" x1="240.56" y1="332.58" x2="241.92" y2="332.58"/><text class="cls-38" transform="translate(250.91 350.8)">Clone S Pacefiller</text><text class="cls-39" transform="translate(251.12 359.26)">Generic Employee </text><circle class="cls-2" cx="238.42" cy="353.02" r="8.93"/><path class="cls-41" d="M235.51,354a1.55,1.55,0,0,0-1.55,1.55v1.55h8.93v-1.55a1.55,1.55,0,0,0-1.55-1.55Z"/><line class="cls-41" x1="235.51" y1="354.77" x2="236.29" y2="354.77"/><line class="cls-41" x1="235.51" y1="355.55" x2="236.29" y2="355.55"/><line class="cls-41" x1="235.51" y1="356.32" x2="236.29" y2="356.32"/><path class="cls-41" d="M240.17,351.47v.39a1.89,1.89,0,0,1-3.49,0v-.39a1.76,1.76,0,0,1,3.49,0Z"/><path class="cls-41" d="M240.75,351.28c0,.07,0,1,0,1a2.42,2.42,0,0,1-4.65,0s0-.9,0-1a2.33,2.33,0,0,1,4.66,0Z"/><circle class="cls-41" cx="241.14" cy="355.55" r="0.58"/><rect class="cls-41" x="237.07" y="354.77" width="1.94" height="1.55"/><path class="cls-41" d="M235.12,354v-3.15a.78.78,0,0,1,.78-.78h.51"/><path class="cls-41" d="M241.72,354v-3.15a.78.78,0,0,0-.78-.78h-.51"/><line class="cls-41" x1="237.36" y1="351.37" x2="237.84" y2="350.89"/><line class="cls-41" x1="238.91" y1="352.25" x2="239.39" y2="351.76"/><line class="cls-41" x1="237.84" y1="352.05" x2="239.1" y2="350.79"/><text class="cls-38" transform="translate(250.91 374.41)">Clone S Pacefiller</text><text class="cls-39" transform="translate(251.12 382.86)">Generic Employee </text><circle class="cls-2" cx="238.42" cy="376.63" r="8.93"/><path class="cls-41" d="M235.51,377.6a1.55,1.55,0,0,0-1.55,1.55v1.55h8.93v-1.55a1.55,1.55,0,0,0-1.55-1.55Z"/><line class="cls-41" x1="235.51" y1="378.38" x2="236.29" y2="378.38"/><line class="cls-41" x1="235.51" y1="379.15" x2="236.29" y2="379.15"/><line class="cls-41" x1="235.51" y1="379.93" x2="236.29" y2="379.93"/><path class="cls-41" d="M240.17,375.08v.39a1.89,1.89,0,0,1-3.49,0v-.39a1.76,1.76,0,0,1,3.49,0Z"/><path class="cls-41" d="M240.75,374.88c0,.07,0,1,0,1a2.42,2.42,0,0,1-4.65,0s0-.9,0-1a2.33,2.33,0,0,1,4.66,0Z"/><circle class="cls-41" cx="241.14" cy="379.15" r="0.58"/><rect class="cls-41" x="237.07" y="378.38" width="1.94" height="1.55"/><path class="cls-41" d="M235.12,377.65v-3.15a.78.78,0,0,1,.78-.78h.51"/><path class="cls-41" d="M241.72,377.65v-3.15a.78.78,0,0,0-.78-.78h-.51"/><line class="cls-41" x1="237.36" y1="374.98" x2="237.84" y2="374.49"/><line class="cls-41" x1="238.91" y1="375.85" x2="239.39" y2="375.37"/><line class="cls-41" x1="237.84" y1="375.66" x2="239.1" y2="374.4"/><text class="cls-38" transform="translate(250.91 398.3)">Clone S Pacefiller</text><text class="cls-39" transform="translate(251.12 406.75)">Generic Employee </text><circle class="cls-2" cx="238.42" cy="400.52" r="8.93"/><path class="cls-41" d="M235.51,401.49A1.55,1.55,0,0,0,234,403v1.55h8.93V403a1.55,1.55,0,0,0-1.55-1.55Z"/><line class="cls-41" x1="235.51" y1="402.26" x2="236.29" y2="402.26"/><line class="cls-41" x1="235.51" y1="403.04" x2="236.29" y2="403.04"/><line class="cls-41" x1="235.51" y1="403.82" x2="236.29" y2="403.82"/><path class="cls-41" d="M240.17,399v.39a1.89,1.89,0,0,1-3.49,0V399a1.76,1.76,0,0,1,3.49,0Z"/><path class="cls-41" d="M240.75,398.77c0,.07,0,1,0,1a2.42,2.42,0,0,1-4.65,0s0-.9,0-1a2.33,2.33,0,0,1,4.66,0Z"/><circle class="cls-41" cx="241.14" cy="403.04" r="0.58"/><rect class="cls-41" x="237.07" y="402.26" width="1.94" height="1.55"/><path class="cls-41" d="M235.12,401.54v-3.15a.78.78,0,0,1,.78-.78h.51"/><path class="cls-41" d="M241.72,401.54v-3.15a.78.78,0,0,0-.78-.78h-.51"/><line class="cls-41" x1="237.36" y1="398.87" x2="237.84" y2="398.38"/><line class="cls-41" x1="238.91" y1="399.74" x2="239.39" y2="399.25"/><line class="cls-41" x1="237.84" y1="399.55" x2="239.1" y2="398.28"/><circle class="cls-43" cx="393.47" cy="305.37" r="7.44"/><path class="cls-44" d="M398.2,304.86c0,2.13-2.12,3.86-4.73,3.86a5.67,5.67,0,0,1-1.66-.24l-2.72,1.26,1.06-2.12a3.54,3.54,0,0,1-1.42-2.75c0-2.13,2.12-3.86,4.73-3.86S398.2,302.73,398.2,304.86Z"/><path class="cls-44" d="M393.88,306.75a.21.21,0,0,1-.21.21h0a.21.21,0,0,1-.21-.21h0a.21.21,0,0,1,.21-.21h0a.21.21,0,0,1,.21.21Z"/><path class="cls-45" d="M392.44,303.88a1.23,1.23,0,1,1,1.23,1.23v.62"/><circle class="cls-43" cx="393.47" cy="329.16" r="7.44"/><path class="cls-44" d="M398.2,328.65c0,2.13-2.12,3.86-4.73,3.86a5.67,5.67,0,0,1-1.66-.24l-2.72,1.26,1.06-2.12a3.54,3.54,0,0,1-1.42-2.75c0-2.13,2.12-3.86,4.73-3.86S398.2,326.52,398.2,328.65Z"/><path class="cls-44" d="M393.88,330.55a.21.21,0,0,1-.21.21h0a.21.21,0,0,1-.21-.21h0a.21.21,0,0,1,.21-.21h0a.21.21,0,0,1,.21.21Z"/><path class="cls-45" d="M392.44,327.67a1.23,1.23,0,1,1,1.23,1.23v.62"/><circle class="cls-43" cx="393.47" cy="353.17" r="7.44"/><path class="cls-44" d="M398.2,352.66c0,2.13-2.12,3.86-4.73,3.86a5.67,5.67,0,0,1-1.66-.24l-2.72,1.26,1.06-2.12a3.54,3.54,0,0,1-1.42-2.75c0-2.13,2.12-3.86,4.73-3.86S398.2,350.53,398.2,352.66Z"/><path class="cls-44" d="M393.88,354.56a.21.21,0,0,1-.21.21h0a.21.21,0,0,1-.21-.21h0a.21.21,0,0,1,.21-.21h0a.21.21,0,0,1,.21.21Z"/><path class="cls-45" d="M392.44,351.68a1.23,1.23,0,1,1,1.23,1.23v.62"/><circle class="cls-43" cx="393.47" cy="376.71" r="7.44"/><path class="cls-44" d="M398.2,376.2c0,2.13-2.12,3.86-4.73,3.86a5.67,5.67,0,0,1-1.66-.24l-2.72,1.26,1.06-2.12a3.54,3.54,0,0,1-1.42-2.75c0-2.13,2.12-3.86,4.73-3.86S398.2,374.07,398.2,376.2Z"/><path class="cls-44" d="M393.88,378.09a.21.21,0,0,1-.21.21h0a.21.21,0,0,1-.21-.21h0a.21.21,0,0,1,.21-.21h0a.21.21,0,0,1,.21.21Z"/><path class="cls-45" d="M392.44,375.22a1.23,1.23,0,1,1,1.23,1.23v.62"/><circle class="cls-43" cx="393.47" cy="400.59" r="7.44"/><path class="cls-44" d="M398.2,400.08c0,2.13-2.12,3.86-4.73,3.86a5.67,5.67,0,0,1-1.66-.24L389.1,405l1.06-2.12a3.54,3.54,0,0,1-1.42-2.75c0-2.13,2.12-3.86,4.73-3.86S398.2,397.95,398.2,400.08Z"/><path class="cls-44" d="M393.88,402a.21.21,0,0,1-.21.21h0a.21.21,0,0,1-.21-.21h0a.21.21,0,0,1,.21-.21h0a.21.21,0,0,1,.21.21Z"/><path class="cls-45" d="M392.44,399.1a1.23,1.23,0,1,1,1.23,1.23v.62"/><text class="cls-9" transform="translate(229.87 559.21)">Sr. Biomedical Basket Weaver </text><text class="cls-46" transform="translate(229.87 567.22)">@ Company 2015 - now</text><text class="cls-9" transform="translate(229.87 498.68)">Lead Biomedical Basket Weaver </text><text class="cls-46" transform="translate(229.87 506.69)">Go Team — San Francisco, CA USA</text><text class="cls-9" transform="translate(229.87 578.26)">Biomedical Basket Weaver </text><text class="cls-46" transform="translate(229.87 586.3)">@ Company 2011 - 2015</text><text class="cls-9" transform="translate(229.87 597.37)">Biomedical Basket Weaver </text><circle class="cls-43" cx="393.47" cy="500.27" r="7.44"/><path class="cls-44" d="M398.18,499.76c0,2.12-2.11,3.84-4.71,3.84a5.65,5.65,0,0,1-1.65-.24l-2.71,1.26,1.06-2.12a3.53,3.53,0,0,1-1.41-2.75c0-2.12,2.11-3.84,4.71-3.84S398.18,497.64,398.18,499.76Z"/><path class="cls-44" d="M393.68,502.06s2.25-1.64,2.25-2.85c0-1.4-1.84-1.84-2.25-.14-.41-1.7-2.25-1.26-2.25.14C391.42,500.42,393.68,502.06,393.68,502.06Z"/><text class="cls-9" transform="translate(229.87 521.86)">Lead Biomedical Basket Weaver </text><text class="cls-46" transform="translate(229.87 529.88)">Blue Team — San Francisco, CA USA</text><circle class="cls-43" cx="393.47" cy="523.45" r="7.44"/><path class="cls-44" d="M398.18,522.94c0,2.12-2.11,3.84-4.71,3.84a5.65,5.65,0,0,1-1.65-.24l-2.71,1.26,1.06-2.12a3.53,3.53,0,0,1-1.41-2.75c0-2.12,2.11-3.84,4.71-3.84S398.18,520.82,398.18,522.94Z"/><path class="cls-44" d="M393.68,525.25s2.25-1.64,2.25-2.85c0-1.4-1.84-1.84-2.25-.14-.41-1.7-2.25-1.26-2.25.14C391.42,523.61,393.68,525.25,393.68,525.25Z"/><circle class="cls-23" cx="404.64" cy="106.07" r="4.46"/><line class="cls-23" x1="406.36" y1="104.35" x2="402.92" y2="107.79"/><line class="cls-23" x1="406.36" y1="107.79" x2="402.92" y2="104.35"/><path class="cls-47" d="M20.59,21.93a1.51,1.51,0,0,0,.32.86,2.18,2.18,0,0,0,1.68.55,2.75,2.75,0,0,0,1.25-.27.89.89,0,0,0,.54-.84.71.71,0,0,0-.43-.66,5.67,5.67,0,0,0-1.09-.32l-1-.23a5.42,5.42,0,0,1-1.43-.48,1.4,1.4,0,0,1-.82-1.26,1.84,1.84,0,0,1,.77-1.54,3.37,3.37,0,0,1,2.08-.59,3.08,3.08,0,0,1,2.47.89,1.8,1.8,0,0,1,.46,1.22H24.19a1.2,1.2,0,0,0-.31-.69,2.14,2.14,0,0,0-1.54-.44,2,2,0,0,0-1.1.24.73.73,0,0,0-.38.64.78.78,0,0,0,.49.7,3.17,3.17,0,0,0,.84.27l.85.18a7.13,7.13,0,0,1,1.85.57,1.46,1.46,0,0,1,.73,1.36,2,2,0,0,1-.77,1.55,3.55,3.55,0,0,1-2.34.65,3.39,3.39,0,0,1-2.39-.68,2.41,2.41,0,0,1-.75-1.68Z"/><path class="cls-47" d="M29.65,17.37h1.24v.7a2.38,2.38,0,0,1,.56-.46,3.56,3.56,0,0,1,1.66-.39,2.38,2.38,0,0,1,1.44.4,1.78,1.78,0,0,1,.46.51,2.31,2.31,0,0,1,.83-.64,3.63,3.63,0,0,1,1.52-.26,2.13,2.13,0,0,1,2.05,1,3,3,0,0,1,.29,1.43v3.2a.19.19,0,0,0,.19.17h.32v1.15h-.6a1.12,1.12,0,0,1-1.21-1.21V19.44a1,1,0,0,0-.37-.93,1.58,1.58,0,0,0-.91-.25,1.91,1.91,0,0,0-1.27.45,1.87,1.87,0,0,0-.53,1.5v4H34V19.73a2.11,2.11,0,0,0-.18-1,1.14,1.14,0,0,0-1.07-.48,1.94,1.94,0,0,0-1.3.5,2.31,2.31,0,0,0-.58,1.82v3.6H29.64v-6.8h0Z"/><path class="cls-47" d="M61.64,17.51a2.64,2.64,0,0,1,1.63,2A6.92,6.92,0,0,1,63.38,21H57.94a2.69,2.69,0,0,0,.53,1.64A1.87,1.87,0,0,0,60,23.3a2.1,2.1,0,0,0,1.56-.59,1.93,1.93,0,0,0,.46-.78h1.24a2.19,2.19,0,0,1-.32.82,3.05,3.05,0,0,1-.62.74,3,3,0,0,1-1.41.68,4.69,4.69,0,0,1-1,.1,3.29,3.29,0,0,1-2.35-.91,3.34,3.34,0,0,1-1-2.55,3.62,3.62,0,0,1,1-2.62,3.37,3.37,0,0,1,2.54-1A3.68,3.68,0,0,1,61.64,17.51Zm.45,2.63A2.72,2.72,0,0,0,61.73,19,1.86,1.86,0,0,0,60,18.16a2,2,0,0,0-1.44.56A2,2,0,0,0,58,20.14Z"/><path class="cls-47" d="M64.1,17.33h.84a.92.92,0,0,1,.91.73A2.13,2.13,0,0,1,68,17.18a2,2,0,0,1,1.3.63l-.69.85a1.25,1.25,0,0,0-.93-.28,1.27,1.27,0,0,0-1.15.57A1.85,1.85,0,0,0,66,20.22v3.92H64.72V18.92c0-.28-.13-.43-.38-.43H64.1V17.33Z"/><path class="cls-47" d="M54.3,14.76h1.26s0,8,0,8.08a.18.18,0,0,0,.18.17h.31v1.15h-.58a1.1,1.1,0,0,1-1.17-1.21C54.3,21.81,54.3,14.76,54.3,14.76Z"/><path class="cls-47" d="M46.22,26.72h1.26v-2.8a3.78,3.78,0,0,1-1.26.7Z"/><path class="cls-47" d="M49.77,17.15a2.89,2.89,0,0,0-1.93.7,4.08,4.08,0,0,1,.58.85,2.12,2.12,0,0,1,1.26-.41A2.36,2.36,0,0,1,52,20.7a2.28,2.28,0,0,1-2.26,2.36,2.21,2.21,0,0,1-1.26-.39,4.14,4.14,0,0,1-.58.85,2.83,2.83,0,0,0,2,.69,3.38,3.38,0,0,0,3.39-3.44A3.45,3.45,0,0,0,49.77,17.15Z"/><path class="cls-47" d="M48,19.13a3.46,3.46,0,0,0-.54-.85l-.09-.09a3.17,3.17,0,0,0-1.15-.79,3.57,3.57,0,0,0-1.34-.25,2.83,2.83,0,0,0-2.38,1.21h0v-1H41.32v9.38h1.26V23.08h0A2.63,2.63,0,0,0,45,24.22,3.41,3.41,0,0,0,46.22,24a3.24,3.24,0,0,0,1.26-.89v0a3.46,3.46,0,0,0,.52-.81,3.58,3.58,0,0,0,.33-1.49A4,4,0,0,0,48,19.13Zm-1.77,3.45a2.23,2.23,0,0,1-1.39.49,2.38,2.38,0,0,1,0-4.76,2.18,2.18,0,0,1,1.43.53,2.49,2.49,0,0,1,.87,1.87A2.34,2.34,0,0,1,46.22,22.58Z"/><path class="cls-47" d="M26.75,17.36v5.59a1.1,1.1,0,0,0,1.18,1.21h.58V23h-.28a.21.21,0,0,1-.22-.21V17.36a1.56,1.56,0,0,1-.64.11A2.39,2.39,0,0,1,26.75,17.36Z"/><circle class="cls-47" cx="27.4" cy="15.1" r="1.16"/><rect class="cls-2" x="656.71" y="169.55" width="85.05" height="9.52" rx="1" ry="1"/><text class="cls-48" transform="translate(657.97 176.68)">San Francisco, CA USA</text><circle class="cls-49" cx="736.7" cy="174.02" r="3.27"/><line class="cls-49" x1="737.96" y1="172.75" x2="735.44" y2="175.28"/><line class="cls-49" x1="737.96" y1="175.28" x2="735.44" y2="172.75"/></svg>