<svg id="Layer_1" data-name="Layer 1" xmlns="http://www.w3.org/2000/svg" viewBox="0 0 860 600"><defs><style>.cls-1{fill:#ccc;}.cls-2{font-size:13.15px;}.cls-11,.cls-12,.cls-2,.cls-29,.cls-7{font-family:FrancoisOne-Regular, Francois One;}.cls-3,.cls-4,.cls-5,.cls-7,.cls-8{font-size:6.57px;}.cls-13,.cls-14,.cls-15,.cls-18,.cls-21,.cls-23,.cls-3,.cls-30,.cls-34{font-family:OpenSans-Light, Open Sans;}.cls-24,.cls-4{font-family:OpenSans-Bold, Open Sans;}.cls-17,.cls-22,.cls-24,.cls-4{font-weight:700;}.cls-10,.cls-16,.cls-31,.cls-5{font-family:OpenSans, Open Sans;}.cls-6{fill:#e6e6e6;}.cls-8{font-family:OpenSansLight-Italic, Open Sans;font-style:italic;}.cls-31,.cls-9{fill:gray;}.cls-10{font-size:7.67px;text-decoration:underline;}.cls-11{font-size:11.67px;}.cls-11,.cls-13,.cls-23,.cls-24,.cls-29{fill:#4d4d4d;}.cls-12{font-size:7.78px;}.cls-13,.cls-24{font-size:5.83px;}.cls-14{font-size:9.72px;}.cls-15{font-size:6.81px;}.cls-16,.cls-21,.cls-22,.cls-23,.cls-31{font-size:4.86px;}.cls-17{font-size:3.89px;}.cls-17,.cls-22{font-family:OpenSans-Semibold, Open Sans;}.cls-18{font-size:9.72px;}.cls-19{letter-spacing:0.05em;}.cls-20{font-size:5.83px;}.cls-25{letter-spacing:-0.01em;}.cls-26,.cls-27,.cls-28,.cls-32,.cls-33{fill:none;}.cls-26{stroke:#b3b3b3;}.cls-26,.cls-27{stroke-miterlimit:10;}.cls-27{stroke:#e6e6e6;}.cls-28{stroke:#999;}.cls-28,.cls-32{stroke-linecap:round;}.cls-28,.cls-32,.cls-33{stroke-linejoin:round;}.cls-29{font-size:12px;}.cls-30{font-size:5.35px;}.cls-32,.cls-33{stroke:#4d4d4d;}.cls-34{font-size:6px;}</style></defs><title>smpp_01</title><rect class="cls-1" x="265.17" y="30.81" width="143.48" height="80.17"/><rect class="cls-1" x="106.54" y="31.81" width="143.48" height="48.19"/><text class="cls-2" transform="translate(147.58 49.56)">Candidate Name</text><text class="cls-3" transform="translate(147.54 58.66)">job title @ Company</text><text class="cls-4" transform="translate(147.54 67.38)">location</text><text class="cls-5" transform="translate(291.41 460.02)">Recommended roles list</text><circle class="cls-6" cx="128.18" cy="51.32" r="14.68"/><circle class="cls-6" cx="337.06" cy="50.41" r="15.78"/><path d="M247,32.81a2,2,0,0,1,2,2V121a2,2,0,0,1-2,2H109.54a2,2,0,0,1-2-2V34.81a2,2,0,0,1,2-2H247m0-1H109.54a3,3,0,0,0-3,3V121a3,3,0,0,0,3,3H247a3,3,0,0,0,3-3V34.81a3,3,0,0,0-3-3Z"/><rect class="cls-1" x="106.54" y="139.81" width="143.48" height="80.17"/><text class="cls-2" transform="translate(134.46 188.89)">Candidate Name</text><text class="cls-3" transform="translate(148.68 197.66)">job title @ Company</text><text class="cls-4" transform="translate(164.94 206.38)">location</text><circle class="cls-6" cx="178.28" cy="159.41" r="15.78"/><path d="M247,140.81a2,2,0,0,1,2,2V280.29a2,2,0,0,1-2,2H109.54a2,2,0,0,1-2-2V142.81a2,2,0,0,1,2-2H247m0-1H109.54a3,3,0,0,0-3,3V280.29a3,3,0,0,0,3,3H247a3,3,0,0,0,3-3V142.81a3,3,0,0,0-3-3Z"/><rect class="cls-6" x="265.17" y="174.29" width="143.48" height="51.7"/><text class="cls-2" transform="translate(293.09 79.89)">Candidate Name</text><text class="cls-3" transform="translate(307.31 88.66)">job title @ Company</text><text class="cls-4" transform="translate(323.57 97.38)">location</text><text class="cls-7" transform="translate(271.17 184.51)">Skills:</text><text class="cls-5" transform="translate(325.06 205.13)">Skills list</text><rect class="cls-6" x="265.17" y="267.55" width="143.48" height="51.7"/><text class="cls-7" transform="translate(271.17 277.77)">Schools:</text><text class="cls-5" transform="translate(314.08 298.39)">Schools list</text><rect class="cls-6" x="265.17" y="486.02" width="143.48" height="51.7"/><text class="cls-7" transform="translate(271.17 496.25)">Contact:</text><text class="cls-5" transform="translate(308.56 512.5)">Contact info list</text><text class="cls-8" transform="translate(297.18 523.05)">Action to message lives in <tspan x="0" y="7.89">this section</tspan></text><rect class="cls-6" x="265.17" y="357.37" width="143.48" height="71.4"/><text class="cls-7" transform="translate(271.17 367.6)">Connections:</text><text class="cls-5" transform="translate(307.33 345.28)">Social media Icons</text><text class="cls-5" transform="translate(299.95 385.13)">Connection Name</text><text class="cls-7" transform="translate(271.17 237.07)">Companies:</text><text class="cls-5" transform="translate(314.08 257.66)">Companies list</text><text class="cls-7" transform="translate(271.17 330.92)">Social media:</text><circle class="cls-9" cx="286.94" cy="383.01" r="6.71"/><circle class="cls-9" cx="149.94" cy="378.01" r="6.71"/><circle class="cls-9" cx="170.94" cy="378.01" r="6.71"/><circle class="cls-9" cx="189.94" cy="378.01" r="6.71"/><circle class="cls-9" cx="207.94" cy="378.01" r="6.71"/><text class="cls-5" transform="translate(299.95 401.64)">Connection Name</text><circle class="cls-9" cx="286.94" cy="399.52" r="6.71"/><text class="cls-5" transform="translate(299.95 418.15)">Connection Name</text><text class="cls-10" transform="translate(308.56 554.42)">Ignore Candidate</text><circle class="cls-9" cx="286.94" cy="416.03" r="6.71"/><text class="cls-7" transform="translate(271.17 438.98)">Reccomended Jobs:</text><path d="M405.65,31.81a2,2,0,0,1,2,2V567a2,2,0,0,1-2,2H268.17a2,2,0,0,1-2-2V33.81a2,2,0,0,1,2-2H405.65m0-1H268.17a3,3,0,0,0-3,3V567a3,3,0,0,0,3,3H405.65a3,3,0,0,0,3-3V33.81a3,3,0,0,0-3-3Z"/><rect class="cls-6" x="604.28" y="189.93" width="38.72" height="7.03"/><rect class="cls-1" x="595" y="367.46" width="154.24" height="40.09"/><text class="cls-11" transform="translate(633.44 380.92)">Candidate Name</text><text class="cls-12" transform="translate(603.42 418.96)">Continuity</text><text class="cls-12" transform="translate(707.27 418.96)">Experience</text><text class="cls-12" transform="translate(646.36 418.96)">Career Progress</text><text class="cls-13" transform="translate(646.06 390.92)">job title @ Company</text><text class="cls-14" transform="translate(610.24 431.36)">High</text><text class="cls-15" transform="translate(600.99 470.41)">Stanford </text><text class="cls-16" transform="translate(613.55 477)">M.S. Biomedical Basket Weaving</text><text class="cls-17" transform="translate(601.88 477)">2012</text><text class="cls-16" transform="translate(613.55 493.11)">B.S. Biomedical Basket Weaving</text><text class="cls-17" transform="translate(601.88 493.12)">2008</text><text class="cls-15" transform="translate(600.99 486.57)">University of Illinois Urbana-Champaign</text><text class="cls-14" transform="translate(662.37 431.83)">Slow</text><text class="cls-18" transform="translate(715.04 431.4) rotate(0.9)">1<tspan class="cls-19" x="5.55" y="0">5</tspan><tspan class="cls-20" x="11.59" y="0">yrs</tspan></text><text class="cls-21" transform="translate(605.36 439.95)">Last two jobs: </text><text class="cls-22" transform="translate(608.7 446.64)">&lt;1yr, &lt;1yr </text><text class="cls-21" transform="translate(655.67 439.99)">In current level:</text><text class="cls-23" transform="translate(665.18 507.55)">details</text><text class="cls-22" transform="translate(663.44 446.46)">11years </text><text class="cls-24" transform="translate(647.78 400.88)">Anytown, ST USA</text><path d="M746.8,368.46a2,2,0,0,1,2,2V516.13a2,2,0,0,1-2,2H598a2,2,0,0,1-2-2V370.46a2,2,0,0,1,2-2H746.8m0-1H598a3,3,0,0,0-3,3V516.13a3,3,0,0,0,3,3H746.8a3,3,0,0,0,3-3V370.46a3,3,0,0,0-3-3Z"/><text class="cls-12" transform="translate(600.43 459.94)"><tspan class="cls-25">E</tspan><tspan x="3.72" y="0">ducation</tspan></text><text class="cls-15" transform="translate(113.99 242.41)">Stanford </text><text class="cls-16" transform="translate(126.55 249)">M.S. Biomedical Basket Weaving</text><text class="cls-16" transform="translate(126.55 265.11)">B.S. Biomedical Basket Weaving</text><text class="cls-15" transform="translate(113.99 258.57)">University of Illinois Urbana-Champaign</text><text class="cls-12" transform="translate(113.43 231.94)"><tspan class="cls-25">E</tspan><tspan x="3.72" y="0">ducation</tspan></text><line class="cls-26" x1="600.91" y1="462.32" x2="743.85" y2="462.32"/><line class="cls-27" x1="698.47" y1="509.61" x2="646.29" y2="509.61"/><line class="cls-26" x1="645.18" y1="421.81" x2="699.79" y2="421.81"/><line class="cls-26" x1="705.63" y1="421.81" x2="743.74" y2="421.81"/><line class="cls-26" x1="601.13" y1="421.81" x2="639.24" y2="421.81"/><text class="cls-12" transform="translate(282.42 123.96)">Hoppy</text><text class="cls-12" transform="translate(365.27 123.96)">Experience</text><text class="cls-12" transform="translate(322.98 123.96)">Progress</text><text class="cls-14" transform="translate(282.24 136.36)">High</text><text class="cls-14" transform="translate(327.37 136.83)">Slow</text><text class="cls-18" transform="translate(373.04 136.4) rotate(0.9)">1<tspan class="cls-19" x="5.55" y="0">5</tspan><tspan class="cls-20" x="11.59" y="0">yrs</tspan></text><text class="cls-21" transform="translate(277.36 144.95)">Last two jobs: </text><text class="cls-22" transform="translate(280.7 151.64)">&lt;1yr, &lt;1yr </text><text class="cls-21" transform="translate(320.67 144.99)">In current level:</text><text class="cls-22" transform="translate(328.44 151.46)">11years </text><line class="cls-26" x1="358.47" y1="126.81" x2="316.5" y2="126.81"/><line class="cls-26" x1="363.63" y1="126.81" x2="401.74" y2="126.81"/><line class="cls-26" x1="273.13" y1="126.81" x2="311.24" y2="126.81"/><polyline class="cls-28" points="673.95 512.13 672.21 513.87 670.47 512.13"/><polyline class="cls-28" points="673.95 513.87 672.21 515.61 670.47 513.87"/><rect class="cls-1" x="424" y="28.46" width="154.24" height="31.54"/><text class="cls-12" transform="translate(432.42 72.96)">Continuity</text><text class="cls-12" transform="translate(536.27 72.96)">Experience</text><text class="cls-12" transform="translate(475.36 72.96)">Career Progress</text><text class="cls-29" transform="translate(452.16 43.49)">job title @ Company</text><text class="cls-14" transform="translate(439.24 85.36)">High</text><text class="cls-14" transform="translate(491.37 85.83)">Slow</text><text class="cls-18" transform="translate(544.04 85.4) rotate(0.9)">1<tspan class="cls-19" x="5.55" y="0">5</tspan><tspan class="cls-20" x="11.59" y="0">yrs</tspan></text><text class="cls-21" transform="translate(434.36 93.95)">Last two jobs: </text><text class="cls-22" transform="translate(437.7 100.64)">&lt;1yr, &lt;1yr </text><text class="cls-21" transform="translate(484.67 93.99)">In current level:</text><text class="cls-23" transform="translate(494.18 158.55)">details</text><text class="cls-22" transform="translate(492.44 100.46)">11years </text><text class="cls-24" transform="translate(476.78 51.88)">Anytown, ST USA</text><path d="M575.8,29.46a2,2,0,0,1,2,2V177.13a2,2,0,0,1-2,2H427a2,2,0,0,1-2-2V31.46a2,2,0,0,1,2-2H575.8m0-1H427a3,3,0,0,0-3,3V177.13a3,3,0,0,0,3,3H575.8a3,3,0,0,0,3-3V31.46a3,3,0,0,0-3-3Z"/><line class="cls-27" x1="527.47" y1="160.61" x2="475.29" y2="160.61"/><line class="cls-26" x1="474.18" y1="75.81" x2="528.79" y2="75.81"/><line class="cls-26" x1="534.63" y1="75.81" x2="572.74" y2="75.81"/><line class="cls-26" x1="430.13" y1="75.81" x2="468.24" y2="75.81"/><polyline class="cls-28" points="502.95 163.13 501.21 164.87 499.47 163.13"/><polyline class="cls-28" points="502.95 164.87 501.21 166.61 499.47 164.87"/><rect class="cls-1" x="594.76" y="28.46" width="154.24" height="40.09"/><text class="cls-11" transform="translate(633.2 41.92)">Candidate Name</text><text class="cls-12" transform="translate(603.18 79.96)">Continuity</text><text class="cls-12" transform="translate(707.03 79.96)">Experience</text><text class="cls-12" transform="translate(646.13 79.96)">Career Progress</text><text class="cls-13" transform="translate(645.83 51.92)">job title @ Company</text><text class="cls-14" transform="translate(610.01 92.36)">High</text><text class="cls-15" transform="translate(600.76 131.41)">Stanford </text><text class="cls-15" transform="translate(626.5 231.99)">Jill Longname Joebobtompsonton</text><text class="cls-30" transform="translate(605.31 195.38)">Basket weaving</text><rect class="cls-6" x="668.93" y="189.93" width="41.36" height="7.03"/><text class="cls-30" transform="translate(669.96 195.38)">Clinical research</text><rect class="cls-6" x="646.31" y="189.93" width="19.4" height="7.03"/><text class="cls-30" transform="translate(647.34 195.38)">SCUBA</text><rect class="cls-6" x="713.56" y="189.93" width="27.02" height="7.03"/><text class="cls-30" transform="translate(714.6 195.38)">Skillllllllllllz</text><rect class="cls-6" x="604.28" y="199.5" width="27.02" height="7.03"/><text class="cls-30" transform="translate(605.31 204.95)">Skillllllllllllz</text><rect class="cls-6" x="634.53" y="199.5" width="27.02" height="7.03"/><text class="cls-30" transform="translate(635.57 204.95)">Skillllllllllllz</text><rect class="cls-6" x="664.84" y="199.5" width="27.02" height="7.03"/><text class="cls-30" transform="translate(665.87 204.95)">Skillllllllllllz</text><rect class="cls-6" x="695.14" y="199.5" width="27.02" height="7.03"/><text class="cls-30" transform="translate(696.18 204.95)">Skillllllllllllz</text><text class="cls-16" transform="translate(613.32 138)">M.S. Biomedical Basket Weaving</text><text class="cls-31" transform="translate(626.67 238.53)">Director of Biomedical Basket Research</text><text class="cls-17" transform="translate(601.65 138)">2012</text><text class="cls-16" transform="translate(613.32 154.11)">B.S. Biomedical Basket Weaving</text><text class="cls-17" transform="translate(601.65 154.12)">2008</text><text class="cls-15" transform="translate(600.76 147.57)">University of Illinois Urbana-Champaign</text><text class="cls-14" transform="translate(662.13 92.83)">Slow</text><text class="cls-18" transform="translate(714.8 92.4) rotate(0.9)">1<tspan class="cls-19" x="5.55" y="0">5</tspan><tspan class="cls-20" x="11.59" y="0">yrs</tspan></text><text class="cls-21" transform="translate(605.13 100.95)">Last two jobs: </text><text class="cls-22" transform="translate(608.47 107.64)">&lt;1yr, &lt;1yr </text><text class="cls-21" transform="translate(655.43 100.99)">In current level:</text><text class="cls-22" transform="translate(663.2 107.46)">11years </text><text class="cls-24" transform="translate(647.54 61.88)">Anytown, ST USA</text><path d="M746.56,29.46a2,2,0,0,1,2,2V354a2,2,0,0,1-2,2H597.76a2,2,0,0,1-2-2V31.46a2,2,0,0,1,2-2h148.8m0-1H597.76a3,3,0,0,0-3,3V354a3,3,0,0,0,3,3h148.8a3,3,0,0,0,3-3V31.46a3,3,0,0,0-3-3Z"/><text class="cls-12" transform="translate(600.19 120.94)"><tspan class="cls-25">E</tspan><tspan x="3.72" y="0">ducation</tspan></text><line class="cls-26" x1="600.68" y1="123.32" x2="743.61" y2="123.32"/><text class="cls-15" transform="translate(429.76 486.41)">Stanford </text><text class="cls-16" transform="translate(442.32 493)">M.S. Biomedical Basket Weaving</text><text class="cls-16" transform="translate(442.32 509.11)">B.S. Biomedical Basket Weaving</text><text class="cls-15" transform="translate(429.76 502.57)">University of Illinois Urbana-Champaign</text><text class="cls-12" transform="translate(429.19 475.94)"><tspan class="cls-25">E</tspan><tspan x="3.72" y="0">ducation</tspan></text><line class="cls-26" x1="429.68" y1="478.32" x2="572.61" y2="478.32"/><text class="cls-12" transform="translate(429.19 524.94)">Contact</text><line class="cls-26" x1="429.68" y1="527.32" x2="572.61" y2="527.32"/><text class="cls-12" transform="translate(600.19 184.81)">Skills</text><line class="cls-26" x1="600.68" y1="187.19" x2="743.61" y2="187.19"/><rect class="cls-6" x="433.28" y="121.93" width="38.72" height="7.03"/><text class="cls-30" transform="translate(434.31 127.38)">Basket weaving</text><rect class="cls-6" x="497.93" y="121.93" width="41.36" height="7.03"/><text class="cls-30" transform="translate(498.96 127.38)">Clinical research</text><rect class="cls-6" x="475.31" y="121.93" width="19.4" height="7.03"/><text class="cls-30" transform="translate(476.34 127.38)">SCUBA</text><rect class="cls-6" x="542.56" y="121.93" width="27.02" height="7.03"/><text class="cls-30" transform="translate(543.6 127.38)">Skillllllllllllz</text><rect class="cls-6" x="433.28" y="131.5" width="27.02" height="7.03"/><text class="cls-30" transform="translate(434.31 136.95)">Skillllllllllllz</text><rect class="cls-6" x="463.53" y="131.5" width="27.02" height="7.03"/><text class="cls-30" transform="translate(464.57 136.95)">Skillllllllllllz</text><rect class="cls-6" x="493.84" y="131.5" width="27.02" height="7.03"/><text class="cls-30" transform="translate(494.87 136.95)">Skillllllllllllz</text><rect class="cls-6" x="524.14" y="131.5" width="27.02" height="7.03"/><text class="cls-30" transform="translate(525.18 136.95)">Skillllllllllllz</text><text class="cls-12" transform="translate(429.19 116.81)">Skills</text><line class="cls-26" x1="429.68" y1="119.19" x2="572.61" y2="119.19"/><rect class="cls-1" x="424" y="193.46" width="154.24" height="31.54"/><text class="cls-12" transform="translate(432.42 237.96)">Continuity</text><text class="cls-12" transform="translate(536.27 237.96)">Experience</text><text class="cls-12" transform="translate(475.36 237.96)">Career Progress</text><text class="cls-29" transform="translate(452.16 208.49)">job title @ Company</text><text class="cls-14" transform="translate(439.24 250.36)">High</text><text class="cls-14" transform="translate(491.37 250.83)">Slow</text><text class="cls-18" transform="translate(544.04 250.4) rotate(0.9)">1<tspan class="cls-19" x="5.55" y="0">5</tspan><tspan class="cls-20" x="11.59" y="0">yrs</tspan></text><text class="cls-21" transform="translate(434.36 258.95)">Last two jobs: </text><text class="cls-22" transform="translate(437.7 265.64)">&lt;1yr, &lt;1yr </text><text class="cls-21" transform="translate(484.67 258.99)">In current level:</text><text class="cls-22" transform="translate(492.44 265.46)">11years </text><text class="cls-24" transform="translate(476.78 216.88)">Anytown, ST USA</text><path d="M575.8,194.46a2,2,0,0,1,2,2V576a2,2,0,0,1-2,2H427a2,2,0,0,1-2-2V196.46a2,2,0,0,1,2-2H575.8m0-1H427a3,3,0,0,0-3,3V576a3,3,0,0,0,3,3H575.8a3,3,0,0,0,3-3V196.46a3,3,0,0,0-3-3Z"/><line class="cls-26" x1="474.18" y1="240.81" x2="528.79" y2="240.81"/><line class="cls-26" x1="534.63" y1="240.81" x2="572.74" y2="240.81"/><line class="cls-26" x1="430.13" y1="240.81" x2="468.24" y2="240.81"/><rect class="cls-6" x="433.28" y="286.93" width="38.72" height="7.03"/><text class="cls-30" transform="translate(434.31 292.38)">Basket weaving</text><rect class="cls-6" x="497.93" y="286.93" width="41.36" height="7.03"/><text class="cls-30" transform="translate(498.96 292.38)">Clinical research</text><rect class="cls-6" x="475.31" y="286.93" width="19.4" height="7.03"/><text class="cls-30" transform="translate(476.34 292.38)">SCUBA</text><rect class="cls-6" x="542.56" y="286.93" width="27.02" height="7.03"/><text class="cls-30" transform="translate(543.6 292.38)">Skillllllllllllz</text><rect class="cls-6" x="433.28" y="296.5" width="27.02" height="7.03"/><text class="cls-30" transform="translate(434.31 301.95)">Skillllllllllllz</text><rect class="cls-6" x="463.53" y="296.5" width="27.02" height="7.03"/><text class="cls-30" transform="translate(464.57 301.95)">Skillllllllllllz</text><rect class="cls-6" x="493.84" y="296.5" width="27.02" height="7.03"/><text class="cls-30" transform="translate(494.87 301.95)">Skillllllllllllz</text><rect class="cls-6" x="524.14" y="296.5" width="27.02" height="7.03"/><text class="cls-30" transform="translate(525.18 301.95)">Skillllllllllllz</text><text class="cls-12" transform="translate(429.19 281.81)">Skills</text><line class="cls-26" x1="429.68" y1="284.19" x2="572.61" y2="284.19"/><rect class="cls-6" x="113.28" y="95.93" width="38.72" height="7.03"/><text class="cls-30" transform="translate(114.31 101.38)">Basket weaving</text><rect class="cls-6" x="177.93" y="95.93" width="41.36" height="7.03"/><text class="cls-30" transform="translate(178.96 101.38)">Clinical research</text><rect class="cls-6" x="155.31" y="95.93" width="19.4" height="7.03"/><text class="cls-30" transform="translate(156.34 101.38)">SCUBA</text><rect class="cls-6" x="111.28" y="211.93" width="38.72" height="7.03"/><text class="cls-30" transform="translate(112.31 217.38)">Basket weaving</text><rect class="cls-6" x="175.93" y="211.93" width="41.36" height="7.03"/><text class="cls-30" transform="translate(176.96 217.38)">Clinical research</text><rect class="cls-6" x="153.31" y="211.93" width="19.4" height="7.03"/><text class="cls-30" transform="translate(154.34 217.38)">SCUBA</text><rect class="cls-6" x="113.28" y="105.5" width="27.02" height="7.03"/><text class="cls-30" transform="translate(114.31 110.95)">Skillllllllllllz</text><rect class="cls-6" x="143.53" y="105.5" width="27.02" height="7.03"/><text class="cls-30" transform="translate(144.57 110.95)">Skillllllllllllz</text><rect class="cls-6" x="173.84" y="105.5" width="27.02" height="7.03"/><text class="cls-30" transform="translate(174.87 110.95)">Skillllllllllllz</text><rect class="cls-6" x="204.14" y="105.5" width="27.02" height="7.03"/><text class="cls-30" transform="translate(205.18 110.95)">Skillllllllllllz</text><text class="cls-12" transform="translate(112.19 89.81)">Skills</text><line class="cls-26" x1="112.68" y1="92.19" x2="243.5" y2="92.19"/><line class="cls-26" x1="112.68" y1="235.19" x2="243.5" y2="235.19"/><rect class="cls-1" x="106.54" y="299.81" width="143.48" height="47.19"/><text class="cls-2" transform="translate(134.46 319.89)">Candidate Name</text><text class="cls-3" transform="translate(148.68 328.66)">job title @ Company</text><text class="cls-4" transform="translate(164.94 337.38)">location</text><path d="M247,300.81a2,2,0,0,1,2,2V440.29a2,2,0,0,1-2,2H109.54a2,2,0,0,1-2-2V302.81a2,2,0,0,1,2-2H247m0-1H109.54a3,3,0,0,0-3,3V440.29a3,3,0,0,0,3,3H247a3,3,0,0,0,3-3V302.81a3,3,0,0,0-3-3Z"/><text class="cls-15" transform="translate(113.99 407.41)">Stanford </text><text class="cls-16" transform="translate(126.55 414)">M.S. Biomedical Basket Weaving</text><text class="cls-16" transform="translate(126.55 430.11)">B.S. Biomedical Basket Weaving</text><text class="cls-15" transform="translate(113.99 423.57)">University of Illinois Urbana-Champaign</text><text class="cls-12" transform="translate(113.43 396.94)"><tspan class="cls-25">E</tspan><tspan x="3.72" y="0">ducation</tspan></text><rect class="cls-6" x="111.28" y="346.93" width="38.72" height="7.03"/><text class="cls-30" transform="translate(112.31 352.38)">Basket weaving</text><rect class="cls-6" x="175.93" y="346.93" width="41.36" height="7.03"/><text class="cls-30" transform="translate(176.96 352.38)">Clinical research</text><rect class="cls-6" x="153.31" y="346.93" width="19.4" height="7.03"/><text class="cls-30" transform="translate(154.34 352.38)">SCUBA</text><line class="cls-26" x1="112.68" y1="400.19" x2="243.5" y2="400.19"/><text class="cls-12" transform="translate(113.43 364.94)">Social media</text><line class="cls-26" x1="112.68" y1="368.19" x2="243.5" y2="368.19"/><text class="cls-12" transform="translate(600.19 218.65)">Connections at CompanyName</text><line class="cls-26" x1="600.68" y1="221.02" x2="743.61" y2="221.02"/><line class="cls-27" x1="595.2" y1="170.61" x2="749.09" y2="170.61"/><line class="cls-26" x1="644.95" y1="82.81" x2="699.55" y2="82.81"/><line class="cls-26" x1="705.39" y1="82.81" x2="743.5" y2="82.81"/><line class="cls-26" x1="600.89" y1="82.81" x2="639" y2="82.81"/><polyline class="cls-28" points="670.24 176.61 671.98 174.87 673.72 176.61"/><polyline class="cls-28" points="670.24 174.87 671.98 173.13 673.72 174.87"/><line class="cls-27" x1="425.2" y1="321.61" x2="579.09" y2="321.61"/><polyline class="cls-28" points="500.24 327.61 501.98 325.87 503.72 327.61"/><polyline class="cls-28" points="500.24 325.87 501.98 324.13 503.72 325.87"/><circle class="cls-6" cx="613.97" cy="233.44" r="9.72"/><path class="cls-32" d="M611.85,231.32c0-.29.24-.26.53-.26s.53,0,.53.26"/><path class="cls-32" d="M615,231.32c0-.29.24-.26.53-.26s.53,0,.53.26"/><path class="cls-32" d="M612.55,234.68l-3.29,1a2.11,2.11,0,0,0-1.37,2v1.88H620v-1.83a2.18,2.18,0,0,0-1.37-2l-3.29-1"/><path class="cls-32" d="M616.61,230a2.64,2.64,0,1,0-5.28,0"/><path class="cls-33" d="M614,230h-2.38a1.06,1.06,0,0,0-1.06,1.06V232a1.31,1.31,0,0,0,1.32,1.18,2.12,2.12,0,0,0,2.11-1.85,2.14,2.14,0,0,0,2.11,1.85A1.31,1.31,0,0,0,617.4,232v-.94a1.06,1.06,0,0,0-1.06-1.06Z"/><circle class="cls-32" cx="613.97" cy="234.76" r="1.32"/><path class="cls-32" d="M611.38,233.1a2.91,2.91,0,0,0,1.26,1.65"/><path class="cls-32" d="M615.29,234.74a2.91,2.91,0,0,0,1.26-1.65"/><path class="cls-33" d="M616.87,235.12a3,3,0,0,1-5.81,0"/><path class="cls-32" d="M612.4,234.73c-.9-.13-4-.68-4-2.08,0-.88.71-1.06,1.58-1.06h.53"/><circle class="cls-32" cx="617.93" cy="233.7" r="0.53"/><circle class="cls-32" cx="618.72" cy="231.59" r="0.26"/><circle class="cls-32" cx="619.25" cy="229.48" r="0.26"/><text class="cls-15" transform="translate(626.5 255.67)">Bob A Srtnme</text><text class="cls-31" transform="translate(626.67 262.21)">Sales Associate</text><circle class="cls-6" cx="613.97" cy="257.11" r="9.72"/><path class="cls-32" d="M614,259.4a2.93,2.93,0,0,0,2.54-2.54c.76,0,.76-1.52,0-1.52l-.25-1.27c-2,0-2-.76-2.28-1-.25.25-.25,1-2.28,1l-.25,1.27c-.76,0-.76,1.52,0,1.52A2.93,2.93,0,0,0,614,259.4Z"/><path class="cls-32" d="M617,255.72l.26-1.9s.25-2.54-3.3-2.54-3.3,2.54-3.3,2.54l.26,1.9"/><path class="cls-32" d="M612.68,258.9l-3.23.88a2,2,0,0,0-1.32,1.9v1.27H619.8v-1.27a2,2,0,0,0-1.32-1.9l-3.22-.89"/><path class="cls-32" d="M612.44,255.85c0-.28.23-.25.51-.25s.51,0,.51.25"/><path class="cls-32" d="M614.47,255.85c0-.28.23-.25.51-.25s.51,0,.51.25"/><polygon class="cls-32" points="613.97 260.67 612.45 262.95 615.49 262.95 613.97 260.67"/><path class="cls-32" d="M613.21,259.14v.76a.76.76,0,0,0,1.52,0v-.76"/><line class="cls-32" x1="616.76" y1="261.43" x2="618.53" y2="261.43"/><text class="cls-15" transform="translate(626.5 279.38)">Clone S Pacefiller</text><text class="cls-31" transform="translate(626.67 285.91)">Generic Employee </text><circle class="cls-6" cx="613.97" cy="280.82" r="9.72"/><path class="cls-32" d="M610.16,282.09a2,2,0,0,0-2,2v2H619.8v-2a2,2,0,0,0-2-2Z"/><line class="cls-32" x1="610.16" y1="283.11" x2="611.18" y2="283.11"/><line class="cls-32" x1="610.16" y1="284.12" x2="611.18" y2="284.12"/><line class="cls-32" x1="610.16" y1="285.13" x2="611.18" y2="285.13"/><path class="cls-32" d="M616.25,278.79v.51a2.47,2.47,0,0,1-4.57,0v-.51a2.3,2.3,0,0,1,4.57,0Z"/><path class="cls-32" d="M617,278.54c0,.09,0,1.27,0,1.27a3.16,3.16,0,0,1-6.08,0s0-1.18,0-1.27a3,3,0,1,1,6.09,0Z"/><circle class="cls-32" cx="617.52" cy="284.12" r="0.76"/><rect class="cls-32" x="612.19" y="283.11" width="2.54" height="2.03"/><path class="cls-32" d="M609.65,282.15V278a1,1,0,0,1,1-1h.66"/><path class="cls-32" d="M618.28,282.15V278a1,1,0,0,0-1-1h-.66"/><line class="cls-32" x1="612.57" y1="278.67" x2="613.21" y2="278.03"/><line class="cls-32" x1="614.6" y1="279.81" x2="615.24" y2="279.17"/><line class="cls-32" x1="613.21" y1="279.55" x2="614.85" y2="277.9"/><text class="cls-15" transform="translate(626.5 303.18)">Clone S Pacefiller</text><text class="cls-31" transform="translate(626.67 309.72)">Generic Employee </text><circle class="cls-6" cx="613.97" cy="304.62" r="9.72"/><path class="cls-32" d="M610.16,305.89a2,2,0,0,0-2,2v2H619.8v-2a2,2,0,0,0-2-2Z"/><line class="cls-32" x1="610.16" y1="306.91" x2="611.18" y2="306.91"/><line class="cls-32" x1="610.16" y1="307.92" x2="611.18" y2="307.92"/><line class="cls-32" x1="610.16" y1="308.94" x2="611.18" y2="308.94"/><path class="cls-32" d="M616.25,302.59v.51a2.47,2.47,0,0,1-4.57,0v-.51a2.3,2.3,0,0,1,4.57,0Z"/><path class="cls-32" d="M617,302.34c0,.09,0,1.27,0,1.27a3.16,3.16,0,0,1-6.08,0s0-1.18,0-1.27a3,3,0,1,1,6.09,0Z"/><circle class="cls-32" cx="617.52" cy="307.92" r="0.76"/><rect class="cls-32" x="612.19" y="306.91" width="2.54" height="2.03"/><path class="cls-32" d="M609.65,306v-4.12a1,1,0,0,1,1-1h.66"/><path class="cls-32" d="M618.28,306v-4.12a1,1,0,0,0-1-1h-.66"/><line class="cls-32" x1="612.57" y1="302.47" x2="613.21" y2="301.83"/><line class="cls-32" x1="614.6" y1="303.61" x2="615.24" y2="302.98"/><line class="cls-32" x1="613.21" y1="303.36" x2="614.85" y2="301.71"/><text class="cls-15" transform="translate(626.5 326.93)">Clone S Pacefiller</text><text class="cls-31" transform="translate(626.67 333.46)">Generic Employee </text><circle class="cls-6" cx="613.97" cy="328.37" r="9.72"/><path class="cls-32" d="M610.16,329.64a2,2,0,0,0-2,2v2H619.8v-2a2,2,0,0,0-2-2Z"/><line class="cls-32" x1="610.16" y1="330.66" x2="611.18" y2="330.66"/><line class="cls-32" x1="610.16" y1="331.67" x2="611.18" y2="331.67"/><line class="cls-32" x1="610.16" y1="332.69" x2="611.18" y2="332.69"/><path class="cls-32" d="M616.25,326.34v.51a2.47,2.47,0,0,1-4.57,0v-.51a2.3,2.3,0,0,1,4.57,0Z"/><path class="cls-32" d="M617,326.09c0,.09,0,1.27,0,1.27a3.16,3.16,0,0,1-6.08,0s0-1.18,0-1.27a3,3,0,1,1,6.09,0Z"/><circle class="cls-32" cx="617.52" cy="331.67" r="0.76"/><rect class="cls-32" x="612.19" y="330.66" width="2.54" height="2.03"/><path class="cls-32" d="M609.65,329.71v-4.12a1,1,0,0,1,1-1h.66"/><path class="cls-32" d="M618.28,329.71v-4.12a1,1,0,0,0-1-1h-.66"/><line class="cls-32" x1="612.57" y1="326.22" x2="613.21" y2="325.58"/><line class="cls-32" x1="614.6" y1="327.36" x2="615.24" y2="326.72"/><line class="cls-32" x1="613.21" y1="327.1" x2="614.85" y2="325.46"/><text class="cls-15" transform="translate(455.5 354.99)">Jill Longname Joebobtompsonton</text><text class="cls-31" transform="translate(455.67 361.53)">Director of Biomedical Basket Research</text><text class="cls-12" transform="translate(429.19 341.65)">Connections at CompanyName</text><line class="cls-26" x1="429.68" y1="344.02" x2="572.61" y2="344.02"/><circle class="cls-6" cx="442.97" cy="356.44" r="9.72"/><path class="cls-32" d="M440.85,354.32c0-.29.24-.26.53-.26s.53,0,.53.26"/><path class="cls-32" d="M444,354.32c0-.29.24-.26.53-.26s.53,0,.53.26"/><path class="cls-32" d="M441.55,357.68l-3.29,1a2.11,2.11,0,0,0-1.37,2v1.88H449v-1.83a2.18,2.18,0,0,0-1.37-2l-3.29-1"/><path class="cls-32" d="M445.61,353a2.64,2.64,0,1,0-5.28,0"/><path class="cls-33" d="M443,353h-2.38a1.06,1.06,0,0,0-1.06,1.06V355a1.31,1.31,0,0,0,1.32,1.18,2.12,2.12,0,0,0,2.11-1.85,2.14,2.14,0,0,0,2.11,1.85A1.31,1.31,0,0,0,446.4,355v-.94a1.06,1.06,0,0,0-1.06-1.06Z"/><circle class="cls-32" cx="442.97" cy="357.76" r="1.32"/><path class="cls-32" d="M440.38,356.1a2.91,2.91,0,0,0,1.26,1.65"/><path class="cls-32" d="M444.29,357.74a2.91,2.91,0,0,0,1.26-1.65"/><path class="cls-33" d="M445.87,358.12a3,3,0,0,1-5.81,0"/><path class="cls-32" d="M441.4,357.73c-.9-.13-4-.68-4-2.08,0-.88.71-1.06,1.58-1.06h.53"/><circle class="cls-32" cx="446.93" cy="356.7" r="0.53"/><circle class="cls-32" cx="447.72" cy="354.59" r="0.26"/><circle class="cls-32" cx="448.25" cy="352.48" r="0.26"/><text class="cls-15" transform="translate(455.5 378.67)">Bob A Srtnme</text><text class="cls-15" transform="translate(430.5 538.67)">Candidate Name</text><text class="cls-34" transform="translate(430.5 548.06)">candidate@email.com</text><text class="cls-31" transform="translate(455.67 385.21)">Sales Associate</text><circle class="cls-6" cx="442.97" cy="380.11" r="9.72"/><path class="cls-32" d="M443,382.4a2.93,2.93,0,0,0,2.54-2.54c.76,0,.76-1.52,0-1.52l-.25-1.27c-2,0-2-.76-2.28-1-.25.25-.25,1-2.28,1l-.25,1.27c-.76,0-.76,1.52,0,1.52A2.93,2.93,0,0,0,443,382.4Z"/><path class="cls-32" d="M446,378.72l.26-1.9s.25-2.54-3.3-2.54-3.3,2.54-3.3,2.54l.26,1.9"/><path class="cls-32" d="M441.68,381.9l-3.23.88a2,2,0,0,0-1.32,1.9v1.27H448.8v-1.27a2,2,0,0,0-1.32-1.9l-3.22-.89"/><path class="cls-32" d="M441.44,378.85c0-.28.23-.25.51-.25s.51,0,.51.25"/><path class="cls-32" d="M443.47,378.85c0-.28.23-.25.51-.25s.51,0,.51.25"/><polygon class="cls-32" points="442.97 383.67 441.44 385.95 444.49 385.95 442.97 383.67"/><path class="cls-32" d="M442.21,382.14v.76a.76.76,0,0,0,1.52,0v-.76"/><line class="cls-32" x1="445.76" y1="384.43" x2="447.53" y2="384.43"/><text class="cls-15" transform="translate(455.5 402.38)">Clone S Pacefiller</text><text class="cls-31" transform="translate(455.67 408.91)">Generic Employee </text><circle class="cls-6" cx="442.97" cy="403.82" r="9.72"/><path class="cls-32" d="M439.16,405.09a2,2,0,0,0-2,2v2H448.8v-2a2,2,0,0,0-2-2Z"/><line class="cls-32" x1="439.16" y1="406.11" x2="440.18" y2="406.11"/><line class="cls-32" x1="439.16" y1="407.12" x2="440.18" y2="407.12"/><line class="cls-32" x1="439.16" y1="408.13" x2="440.18" y2="408.13"/><path class="cls-32" d="M445.25,401.79v.51a2.47,2.47,0,0,1-4.57,0v-.51a2.3,2.3,0,0,1,4.57,0Z"/><path class="cls-32" d="M446,401.54c0,.09,0,1.27,0,1.27a3.16,3.16,0,0,1-6.08,0s0-1.18,0-1.27a3,3,0,1,1,6.09,0Z"/><circle class="cls-32" cx="446.52" cy="407.12" r="0.76"/><rect class="cls-32" x="441.19" y="406.11" width="2.54" height="2.03"/><path class="cls-32" d="M438.65,405.15V401a1,1,0,0,1,1-1h.66"/><path class="cls-32" d="M447.28,405.15V401a1,1,0,0,0-1-1h-.66"/><line class="cls-32" x1="441.57" y1="401.67" x2="442.21" y2="401.03"/><line class="cls-32" x1="443.6" y1="402.81" x2="444.24" y2="402.17"/><line class="cls-32" x1="442.21" y1="402.55" x2="443.85" y2="400.9"/><text class="cls-15" transform="translate(455.5 426.18)">Clone S Pacefiller</text><text class="cls-31" transform="translate(455.67 432.72)">Generic Employee </text><circle class="cls-6" cx="442.97" cy="427.62" r="9.72"/><circle class="cls-6" cx="468.97" cy="562.62" r="7.03"/><circle class="cls-6" cx="489.97" cy="562.62" r="7.03"/><circle class="cls-6" cx="509.97" cy="562.62" r="7.03"/><circle class="cls-6" cx="528.97" cy="562.62" r="7.03"/><path class="cls-32" d="M439.16,428.89a2,2,0,0,0-2,2v2H448.8v-2a2,2,0,0,0-2-2Z"/><line class="cls-32" x1="439.16" y1="429.91" x2="440.18" y2="429.91"/><line class="cls-32" x1="439.16" y1="430.92" x2="440.18" y2="430.92"/><line class="cls-32" x1="439.16" y1="431.94" x2="440.18" y2="431.94"/><path class="cls-32" d="M445.25,425.59v.51a2.47,2.47,0,0,1-4.57,0v-.51a2.3,2.3,0,0,1,4.57,0Z"/><path class="cls-32" d="M446,425.34c0,.09,0,1.27,0,1.27a3.16,3.16,0,0,1-6.08,0s0-1.18,0-1.27a3,3,0,1,1,6.09,0Z"/><circle class="cls-32" cx="446.52" cy="430.92" r="0.76"/><rect class="cls-32" x="441.19" y="429.91" width="2.54" height="2.03"/><path class="cls-32" d="M438.65,429v-4.12a1,1,0,0,1,1-1h.66"/><path class="cls-32" d="M447.28,429v-4.12a1,1,0,0,0-1-1h-.66"/><line class="cls-32" x1="441.57" y1="425.47" x2="442.21" y2="424.83"/><line class="cls-32" x1="443.6" y1="426.61" x2="444.24" y2="425.98"/><line class="cls-32" x1="442.21" y1="426.36" x2="443.85" y2="424.71"/><text class="cls-15" transform="translate(455.5 449.93)">Clone S Pacefiller</text><text class="cls-31" transform="translate(455.67 456.46)">Generic Employee </text><circle class="cls-6" cx="442.97" cy="451.37" r="9.72"/><path class="cls-32" d="M439.16,452.64a2,2,0,0,0-2,2v2H448.8v-2a2,2,0,0,0-2-2Z"/><line class="cls-32" x1="439.16" y1="453.66" x2="440.18" y2="453.66"/><line class="cls-32" x1="439.16" y1="454.67" x2="440.18" y2="454.67"/><line class="cls-32" x1="439.16" y1="455.69" x2="440.18" y2="455.69"/><path class="cls-32" d="M445.25,449.34v.51a2.47,2.47,0,0,1-4.57,0v-.51a2.3,2.3,0,0,1,4.57,0Z"/><path class="cls-32" d="M446,449.09c0,.09,0,1.27,0,1.27a3.16,3.16,0,0,1-6.08,0s0-1.18,0-1.27a3,3,0,0,1,6.09,0Z"/><circle class="cls-32" cx="446.52" cy="454.67" r="0.76"/><rect class="cls-32" x="441.19" y="453.66" width="2.54" height="2.03"/><path class="cls-32" d="M438.65,452.71v-4.12a1,1,0,0,1,1-1h.66"/><path class="cls-32" d="M447.28,452.71v-4.12a1,1,0,0,0-1-1h-.66"/><line class="cls-32" x1="441.57" y1="449.22" x2="442.21" y2="448.58"/><line class="cls-32" x1="443.6" y1="450.36" x2="444.24" y2="449.72"/><line class="cls-32" x1="442.21" y1="450.1" x2="443.85" y2="448.46"/></svg>