<svg id="Layer_1" data-name="Layer 1" xmlns="http://www.w3.org/2000/svg" viewBox="0 0 860 600"><defs><style>.cls-1,.cls-3{font-size:36px;}.cls-1,.cls-14,.cls-2{font-family:FrancoisOne-Regular, Francois One;}.cls-2{font-size:18px;}.cls-2,.cls-7{fill:#1c71ff;}.cls-13,.cls-18,.cls-3{font-family:OpenSans, Open Sans;}.cls-4{fill:#123f88;}.cls-5{font-size:11px;}.cls-15,.cls-16,.cls-5{font-family:OpenSans-Light, Open Sans;}.cls-6{fill:#90b4f0;}.cls-8{fill:#101c2e;}.cls-9{fill:#5a4e99;}.cls-10{fill:#cc5702;}.cls-11{fill:#ffb95b;}.cls-12{fill:#95cc02;}.cls-13,.cls-16{font-size:13px;}.cls-14{font-size:40px;}.cls-15{font-size:24px;}.cls-17{font-size:14px;}.cls-17,.cls-19{font-family:OpenSans-Semibold, Open Sans;font-weight:700;}.cls-18,.cls-19{font-size:16px;}.cls-20{fill:none;stroke:#1c71ff;stroke-miterlimit:10;}</style></defs><title>smpp_06</title><text class="cls-1" transform="translate(451 75.95)">Francois One</text><text class="cls-2" transform="translate(60.89 467.31)">Primary palette</text><text class="cls-2" transform="translate(60 31.84)">Typefaces</text><text class="cls-3" transform="translate(60 76.31)">Open Sans</text><circle class="cls-4" cx="297.71" cy="506.64" r="26.19"/><text class="cls-5" transform="translate(261.65 549.76)">“Medium Blue”<tspan x="3.42" y="13.2">hex: #123f88</tspan><tspan x="-2.16" y="26.4">rgb: 18, 63, 136</tspan></text><circle class="cls-6" cx="198.66" cy="506.64" r="26.19"/><text class="cls-5" transform="translate(170.95 549.76)">“Light Blue”<tspan x="-5.06" y="13.2">hex: #90b4f0</tspan><tspan x="-16.79" y="26.4">rgb: 144, 180, 240</tspan></text><circle class="cls-7" cx="101.66" cy="506.64" r="26.19"/><text class="cls-5" transform="translate(63.93 549.76)">“Simppler Blue”<tspan x="7.1" y="13.2">hex: #1c71ff</tspan><tspan x="-3.64" y="26.4">rgb: 28, 113, 255</tspan></text><circle class="cls-8" cx="393.11" cy="506.64" r="26.19"/><text class="cls-5" transform="translate(365.83 549.76)">“Dark Blue”<tspan x="-6.2" y="13.2">hex: #101c2e</tspan><tspan x="-7.8" y="26.4">rgb: 16, 28, 46</tspan></text><text class="cls-2" transform="translate(455.89 467.31)">Secondary palette</text><circle class="cls-9" cx="491.97" cy="506.54" r="18.88"/><text class="cls-5" transform="translate(472.53 549.89)">“Purple”<tspan x="-14.35" y="13.2">hex: #5a4e99</tspan><tspan x="-18.79" y="26.4">rgb: 90, 78, 153</tspan></text><circle class="cls-10" cx="580.68" cy="507.25" r="18.88"/><text class="cls-5" transform="translate(558.99 550.45)">“Orange”<tspan x="-11.38" y="13.2">hex: #cc5702</tspan><tspan x="-13.39" y="26.4">rgb: 204, 87, 2</tspan></text><circle class="cls-11" cx="760.68" cy="506.01" r="18.88"/><text class="cls-5" transform="translate(732.21 550.32)">“Light Gold”<tspan x="-2.95" y="13.2">hex: #ffb95b</tspan><tspan x="-12.89" y="26.4">rgb: 255, 185, 91</tspan></text><circle class="cls-12" cx="667.97" cy="506.01" r="18.88"/><text class="cls-5" transform="translate(649.27 549.84)">“Green”<tspan x="-14.38" y="13.2">hex: #95cc02</tspan><tspan x="-19.53" y="26.4">rgb: 149, 204, 2</tspan></text><text class="cls-13" transform="translate(451 96.83)">Francois One is the headline font for the web app and <tspan x="0" y="15.6">should only be used for titles and action items in the UI. </tspan></text><text class="cls-13" transform="translate(60 99.83)">Open sans is the body font for the web app and should <tspan x="0" y="15.6">be used for all body copy in any applicatios outside of the </tspan><tspan x="0" y="31.2">app. We use only three weights of Open Sans: Light, </tspan><tspan x="0" y="46.8">Regular and Semibold.</tspan></text><text class="cls-14" transform="translate(503.23 200.45)">Francois One</text><text class="cls-14" transform="translate(143.25 200.45)">Titles</text><text class="cls-14" transform="translate(283.75 200.45)">40px/48px</text><text class="cls-15" transform="translate(521.23 245.69)">Open Sans Light</text><text class="cls-15" transform="translate(143.25 245.69)">Subtitles</text><text class="cls-15" transform="translate(313.32 245.69)">24px/30px</text><text class="cls-16" transform="translate(562.07 425.33)">Open Sans Light</text><text class="cls-16" transform="translate(143.25 425.33)">Captions</text><text class="cls-16" transform="translate(339.77 425.33)">13px/18px</text><text class="cls-17" transform="translate(540.53 289.09)">Open Sans Semibold</text><text class="cls-17" transform="translate(143.25 289.09)">Section headings</text><text class="cls-17" transform="translate(335.89 289.09)">18px/18px</text><text class="cls-18" transform="translate(539.03 335.61)">Open Sans Regular</text><text class="cls-18" transform="translate(143.25 335.61)">Body copy</text><text class="cls-18" transform="translate(331.62 335.61)">16px/24px</text><text class="cls-19" transform="translate(530.64 383.61)">Open Sans Semibold</text><text class="cls-19" transform="translate(143.25 383.61)">Bold text</text><text class="cls-19" transform="translate(330.87 383.61)">16px/24px</text><line class="cls-20" x1="132.25" y1="214.5" x2="727.75" y2="214.5"/><line class="cls-20" x1="132.25" y1="261.5" x2="727.75" y2="261.5"/><line class="cls-20" x1="132.25" y1="308.5" x2="727.75" y2="308.5"/><line class="cls-20" x1="132.25" y1="355.5" x2="727.75" y2="355.5"/><line class="cls-20" x1="132.25" y1="402.5" x2="727.75" y2="402.5"/></svg>