<svg id="Layer_1" data-name="Layer 1" xmlns="http://www.w3.org/2000/svg" viewBox="0 0 300 150"><defs><style>.cls-1{fill:#ffb3ff;}.cls-1,.cls-2{opacity:0.41;}.cls-2,.cls-9{fill:#f0f;}.cls-3{fill:#504d75;}.cls-4{fill:#ffe6ff;}.cls-5{fill:#242052;}.cls-6{fill:#3c3a58;}.cls-7{fill:#fffbe6;}.cls-8{fill:#7c7997;}</style></defs><title>heros</title><rect class="cls-1" x="15.66" y="128.34" width="190.15" height="12.25"/><rect class="cls-2" x="125.04" y="24.16" width="150.15" height="94.5"/><rect class="cls-3" x="53.96" y="12.9" width="92" height="122.3"/><rect class="cls-4" x="59.51" y="20.41" width="78.99" height="104.09"/><rect class="cls-5" x="143.71" y="12.9" width="2.32" height="122.3"/><rect class="cls-6" x="84.74" y="127.26" width="25.39" height="5.23" rx="1.83" ry="1.83"/><rect class="cls-3" x="89.64" y="45.31" width="23.36" height="37.29" transform="translate(-15.55 90.37) rotate(-45)"/><rect class="cls-5" x="92.85" y="53.07" width="1.4" height="37.29" transform="translate(-23.31 87.16) rotate(-45)"/><rect class="cls-7" x="92.26" y="47.36" width="17.89" height="30.39" transform="translate(-14.59 89.88) rotate(-45)"/><rect class="cls-8" x="111.9" y="74.2" width="3.53" height="1.65" transform="translate(-19.75 102.35) rotate(-45)"/><path class="cls-9" d="M124.25,91.51a1.79,1.79,0,0,1-1.55,1.74L94.27,96.58a9.11,9.11,0,0,1,.35,1.91,4.12,4.12,0,0,1-.65,1.74H119a1.74,1.74,0,0,1,0,3.49H91.14A1.76,1.76,0,0,1,89.4,102c0-.84,1.22-2.89,1.66-3.73L86.24,75.83H80.68a1.74,1.74,0,1,1,0-3.49h7c1.82,0,1.88,2.18,2.15,3.49h32.7a1.76,1.76,0,0,1,1.74,1.74V91.51ZM92.88,110.68a3.49,3.49,0,1,1,3.49-3.49A3.51,3.51,0,0,1,92.88,110.68Zm24.4,0a3.49,3.49,0,1,1,3.49-3.49A3.51,3.51,0,0,1,117.28,110.68Z"/></svg>